<svg width="1440" height="820" viewBox="0 0 1440 820" fill="none" xmlns="http://www.w3.org/2000/svg">
<rect width="1440" height="820" fill="#F0F0F7"/>
<rect width="1440" height="820" fill="#8257E5"/>
<path d="M986.753 583.21C987.966 576.846 991.732 571.011 997.02 567.286" stroke="#04D361" stroke-width="0.779" stroke-miterlimit="10"/>
<path d="M986.589 585C986.817 579.686 988.868 566.893 993.719 558.885" stroke="#04D361" stroke-width="0.779" stroke-miterlimit="10"/>
<path d="M986.662 584.343C987.501 574.865 987.428 564.391 985.95 554.986" stroke="#04D361" stroke-width="0.779" stroke-miterlimit="10"/>
<path d="M997.793 564.811L997.793 564.811C997.746 564.894 997.699 564.977 997.652 565.061C996.993 566.226 996.334 567.389 995.522 568.489C995.735 568.418 995.96 568.332 996.194 568.238C996.312 568.191 996.434 568.141 996.558 568.091C996.815 567.986 997.08 567.878 997.331 567.784C997.704 567.645 998.091 567.52 998.452 567.467L998.452 567.467C1000.13 567.221 1001.83 567.288 1003.48 567.502L1003.48 567.502C1004.76 567.67 1006.04 567.923 1007.29 568.173C1007.7 568.254 1008.11 568.335 1008.51 568.412C1010.17 568.729 1011.8 568.992 1013.45 569.014L1013.45 569.014C1014.38 569.027 1015.38 568.905 1016.21 568.583C1017.05 568.261 1017.69 567.756 1018.02 567.019L1018.02 567.018C1018.56 565.812 1018 564.222 1016.88 563.287L1016.88 563.286C1015.77 562.353 1014.24 561.982 1012.67 561.83L1012.67 561.83C1012.09 561.774 1011.52 561.745 1010.93 561.715C1010.72 561.704 1010.5 561.693 1010.28 561.681C1009.47 561.635 1008.64 561.57 1007.81 561.413L1007.81 561.412C1007.32 561.317 1006.84 561.191 1006.37 561.065C1006.29 561.045 1006.22 561.025 1006.14 561.005C1005.75 560.898 1005.36 560.794 1004.98 560.706C1004.06 560.497 1003.21 560.391 1002.37 560.554L997.793 564.811ZM997.793 564.811L997.794 564.809M997.793 564.811L997.794 564.809M997.794 564.809C998.915 562.811 1000.36 560.945 1002.37 560.554L997.794 564.809Z" fill="#04D361" stroke="#04D361"/>
<path d="M993.107 560.007C993.732 559.484 994.324 558.836 994.937 558.143C995.017 558.053 995.096 557.963 995.176 557.872C995.913 557.036 996.687 556.157 997.547 555.472C999.904 553.588 1002.76 552.133 1005.84 551.895L993.107 560.007ZM993.107 560.007C993.138 559.827 993.185 559.618 993.249 559.381C993.468 558.575 993.856 557.547 994.3 556.485C994.973 554.877 995.75 553.246 996.223 552.253C996.376 551.934 996.496 551.68 996.572 551.515M993.107 560.007L996.572 551.515M996.572 551.515C996.572 551.515 996.572 551.515 996.572 551.516L996.118 551.306L996.572 551.514C996.572 551.515 996.572 551.515 996.572 551.515ZM1021 546.23L1021 546.229C1020.35 545.134 1019.03 544.513 1017.65 544.304L1021 546.23ZM1021 546.23C1021.5 547.07 1021.53 548.097 1021.19 549.086M1021 546.23L1021.19 549.086M1021.19 549.086C1020.84 550.077 1020.14 550.983 1019.26 551.541M1021.19 549.086L1019.26 551.541M1019.26 551.541C1017.45 552.688 1015.12 552.77 1012.84 552.517M1019.26 551.541L1012.84 552.517M1012.84 552.517C1012.18 552.444 1011.54 552.35 1010.9 552.254M1012.84 552.517L1010.9 552.254M1010.9 552.254C1010.41 552.182 1009.91 552.109 1009.4 552.043M1010.9 552.254L1009.4 552.043M1009.4 552.043C1008.23 551.895 1007.04 551.799 1005.84 551.894L1009.4 552.043ZM993.085 560.594C993.085 560.594 993.085 560.593 993.085 560.592L993.085 560.594Z" fill="#04D361" stroke="#04D361"/>
<path d="M988.229 545.871L988.229 545.872C988.522 547.665 988.224 549.507 987.662 551.283C987.622 551.41 987.574 551.57 987.518 551.753C987.35 552.313 987.114 553.093 986.824 553.831C986.632 554.319 986.427 554.759 986.218 555.081C986.114 555.242 986.018 555.358 985.935 555.434C985.85 555.511 985.802 555.525 985.793 555.527L985.792 555.527C985.688 555.547 985.477 555.517 985.14 555.349C984.821 555.19 984.464 554.945 984.102 554.659C983.38 554.089 982.702 553.404 982.373 553.061C981.368 552.002 980.568 550.755 980.074 549.392L980.073 549.39C979.495 547.816 979.295 546.134 979.095 544.381C979.091 544.343 979.087 544.304 979.082 544.266C978.889 542.569 978.689 540.807 978.106 539.134L978.106 539.134C977.443 537.239 976.314 535.545 975.232 533.922C974.948 533.496 974.667 533.075 974.399 532.656C973.084 530.604 971.971 528.409 971.988 526.108C972.005 523.802 973.47 521.482 975.57 521.109L975.571 521.109C976.956 520.86 978.429 521.442 979.648 522.367L979.649 522.367C981.372 523.668 982.63 525.57 983.168 527.671C983.491 528.942 983.554 530.265 983.616 531.647L983.618 531.703C983.679 533.05 983.741 534.455 984.079 535.821C984.498 537.534 985.329 539.106 986.126 540.612C986.186 540.727 986.247 540.841 986.307 540.955C987.168 542.589 987.952 544.159 988.229 545.871Z" fill="#04D361" stroke="#04D361"/>
<path d="M986.57 583.448C985.95 575.075 983.798 565.615 979.121 558.648" stroke="#04D361" stroke-width="0.779" stroke-miterlimit="10"/>
<path d="M977.993 552.35L977.993 552.352C978.663 554.22 979.076 556.177 979.421 558.15L979.422 558.151C979.44 558.255 979.472 558.388 979.503 558.52C979.515 558.571 979.526 558.621 979.537 558.669C979.581 558.859 979.62 559.052 979.642 559.236C979.663 559.424 979.662 559.573 979.64 559.681C979.62 559.784 979.589 559.81 979.58 559.816L979.58 559.816C979.576 559.82 979.539 559.846 979.411 559.827C979.282 559.808 979.116 559.749 978.925 559.65C978.546 559.456 978.175 559.165 977.987 558.998C977.651 558.69 977.353 558.334 977.054 557.946C976.949 557.809 976.839 557.663 976.728 557.514C976.535 557.258 976.336 556.991 976.135 556.744L976.135 556.744C973.423 553.409 969.14 551.806 965.003 551.213C962.933 550.916 960.851 550.838 958.785 550.805C958.239 550.797 957.695 550.791 957.153 550.785C955.634 550.769 954.128 550.754 952.622 550.67L952.619 550.67C951.682 550.624 950.838 550.522 950.213 550.078C949.397 549.494 949.057 548.299 949.307 547.209C949.556 546.131 950.299 545.177 951.215 544.39L951.215 544.39C953.238 542.651 955.925 541.774 958.636 541.597C961.348 541.419 964.087 541.907 966.762 542.631L966.762 542.631C969.34 543.328 971.853 544.264 973.829 545.927C975.783 547.578 977.118 549.884 977.993 552.35ZM979.986 558.389C979.956 558.264 979.93 558.153 979.914 558.063L977.652 559.369C978.063 559.734 979.285 560.657 979.877 560.218C980.336 559.879 980.125 558.98 979.986 558.389Z" fill="#04D361" stroke="#04D361"/>
<path d="M986.397 584.343C986.033 577.038 982.75 569.916 977.443 564.893" stroke="#04D361" stroke-width="0.779" stroke-miterlimit="10"/>
<path d="M978.511 565.408C978.296 565.019 978.077 564.542 977.882 564.117C977.688 563.696 977.518 563.325 977.397 563.14M978.511 565.408L968.835 558.392C970.887 558.967 973.011 559.616 974.899 560.62L974.899 560.62C975.036 560.693 975.172 560.766 975.309 560.848C976.23 561.369 976.823 562.264 977.397 563.14M978.511 565.408C978.29 565.333 978.067 565.266 977.841 565.204M978.511 565.408L978.173 565.823M977.397 563.14L976.979 563.414M977.397 563.14L976.979 563.414C976.979 563.414 976.979 563.414 976.979 563.414M977.841 565.204C977.949 565.42 978.06 565.633 978.173 565.823M977.841 565.204C975.373 564.528 972.657 564.553 970.281 564.576L970.253 564.576M977.841 565.204C977.807 565.135 977.773 565.065 977.74 564.996C977.631 564.77 977.524 564.536 977.425 564.32C977.378 564.218 977.333 564.119 977.29 564.028C977.15 563.726 977.046 563.517 976.979 563.414M978.173 565.823C975.667 565.028 972.819 565.052 970.257 565.076C967.066 565.103 963.874 565.697 960.893 566.848C960.514 566.995 960.137 567.152 959.759 567.309C958.271 567.928 956.775 568.55 955.175 568.637C954.063 568.692 952.732 568.327 952.394 567.258L978.173 565.823ZM970.253 564.576L968.7 558.874C970.751 559.449 972.829 560.085 974.664 561.062L974.898 560.621L974.663 561.061C974.802 561.135 974.927 561.202 975.052 561.277L975.051 561.277L975.063 561.284C975.861 561.735 976.393 562.52 976.979 563.414M970.253 564.576C970.253 564.576 970.253 564.576 970.253 564.576L970.257 565.075L970.253 564.576ZM962.83 558.153C964.719 557.786 966.692 558.311 968.7 558.874L962.83 558.153ZM955.149 568.138C954.65 568.162 954.118 568.09 953.689 567.909C953.265 567.729 952.983 567.462 952.872 567.11C952.696 566.534 953 565.852 953.515 565.166L953.515 565.166L953.516 565.164C954.534 563.793 955.848 562.669 957.205 561.512C958.973 560.008 960.727 558.562 962.83 558.153L955.149 568.138Z" fill="#04D361" stroke="#04D361"/>
<path d="M1208.58 554.672L1208.58 554.671C1210.09 553.17 1210.77 551.087 1211.38 549.192C1211.47 548.925 1211.55 548.661 1211.64 548.404C1212.36 546.259 1213.38 544.159 1215.2 543.28C1217.31 542.266 1219.76 543.246 1221.85 544.592C1222.08 544.746 1222.33 544.906 1222.57 545.068C1223.38 545.603 1224.24 546.165 1225.12 546.615C1226.28 547.207 1227.54 547.634 1228.94 547.585C1230.04 547.545 1231.11 547.204 1232.1 546.88L1232.17 546.856C1233.16 546.534 1234.08 546.235 1235.01 546.168C1237.62 545.992 1239.89 547.665 1242.05 549.418L1242.06 549.419C1243.63 550.687 1245.11 551.953 1245.6 553.728L1245.6 553.728C1246.19 555.872 1245.1 558.45 1243.23 560.005L1243.23 560.006C1241.38 561.563 1238.91 562.21 1236.51 562.263L1236.51 562.263C1236.22 562.27 1235.92 562.272 1235.61 562.273C1234.75 562.277 1233.84 562.281 1232.98 562.401C1231.79 562.568 1230.6 562.968 1229.71 563.962L1229.71 563.962C1228.83 564.932 1228.53 566.152 1228.31 567.294C1228.27 567.476 1228.24 567.655 1228.21 567.832C1228.03 568.806 1227.86 569.705 1227.45 570.506C1226.48 572.399 1224.19 573.421 1222.05 573.412C1219.91 573.403 1217.89 572.594 1215.82 571.763L1215.77 571.74C1213.71 570.914 1211.46 570.047 1209.06 570.153C1206.84 570.249 1204.7 571.177 1202.7 572.051C1202.31 572.221 1201.92 572.388 1201.54 572.547L1201.54 572.547C1200.51 572.983 1199.07 573.571 1197.71 573.796C1196.33 574.025 1195.21 573.851 1194.58 573.016L1194.57 573.014C1194.29 572.649 1194.14 572.139 1194.11 571.497C1194.08 570.857 1194.18 570.127 1194.34 569.367C1194.67 567.893 1195.25 566.391 1195.66 565.345C1195.68 565.312 1195.69 565.278 1195.7 565.246C1196.79 562.472 1198.6 559.89 1201.1 558.458C1201.99 557.952 1202.94 557.593 1203.94 557.22C1204.25 557.103 1204.56 556.984 1204.88 556.858C1206.19 556.346 1207.51 555.733 1208.58 554.672Z" fill="#04D361" stroke="#04D361"/>
<path d="M1194.62 573.072C1206.75 562.635 1220.91 555.723 1236.2 552.783" stroke="white" stroke-width="0.7047" stroke-miterlimit="10" stroke-linecap="round" stroke-linejoin="round"/>
<path d="M1206.62 557.02C1206.9 553.577 1206.25 549.989 1207.38 546.729C1209.4 540.921 1216.38 537.89 1218.13 532C1220.23 524.96 1213.83 517.774 1214.94 510.515C1215.41 507.456 1217.17 504.762 1218.26 501.868C1219.35 498.973 1219.64 495.348 1217.51 493.093C1215.29 490.737 1211.25 491.011 1208.6 492.892C1205.96 494.773 1204.44 497.823 1203.2 500.827C1201.96 503.831 1200.88 506.972 1198.79 509.465C1194.99 514.003 1188.15 515.994 1186.07 521.536C1183.96 527.179 1187.96 533.151 1188.67 539.132C1189.21 543.661 1187.83 548.172 1186.6 552.573C1185.38 556.974 1184.29 561.631 1185.41 566.05C1186.91 571.94 1192.21 575.693 1197.29 571.912C1202.31 568.196 1206.1 563.493 1206.62 557.02Z" fill="#04D361"/>
<path d="M1194.07 573.355C1192.05 552.335 1196.67 529.535 1207.45 511.382" stroke="white" stroke-width="1.1364" stroke-miterlimit="10" stroke-linecap="round" stroke-linejoin="round"/>
<path d="M1180.65 565.429C1178.43 562.297 1177.16 558.38 1174.15 555.997C1170.71 553.258 1165.93 553.23 1161.55 552.874C1157.17 552.518 1152.22 551.276 1150.19 547.368C1149.08 545.222 1149.08 542.675 1148.3 540.392C1147.44 537.881 1145.69 535.799 1144.46 533.452C1143.24 531.106 1142.59 528.12 1144.02 525.883C1145.46 523.618 1148.61 522.952 1151.19 523.682C1153.77 524.413 1155.89 526.23 1157.82 528.092C1159.76 529.955 1161.64 531.946 1164.02 533.169C1167.97 535.187 1172.66 534.813 1177.09 534.621C1181.52 534.438 1186.35 534.621 1189.78 537.452C1192.6 539.78 1193.89 543.442 1195.03 546.921C1196.69 551.897 1198.39 556.855 1200 561.85C1201 564.918 1202.9 569.62 1199.7 572.031C1194.08 576.277 1183.89 570.004 1180.65 565.429Z" fill="#04D361"/>
<path d="M1197.93 572.214C1190.89 555.851 1175.99 541.917 1158.15 535.772" stroke="white" stroke-width="0.8174" stroke-miterlimit="10" stroke-linecap="round" stroke-linejoin="round"/>
<path d="M792.359 571.462C794.374 568.458 795.541 564.605 798.249 562.404C801.359 559.893 805.635 560.222 809.574 560.176C813.505 560.14 817.945 559.254 819.805 555.456C820.827 553.374 820.836 550.799 821.556 548.543C822.34 546.069 823.927 544.097 825.049 541.814C826.161 539.531 826.763 536.563 825.514 534.198C824.237 531.806 821.419 530.902 819.103 531.45C816.787 531.998 814.872 533.678 813.131 535.413C811.389 537.148 809.684 539.02 807.532 540.079C803.976 541.832 799.781 541.102 795.805 540.581C791.83 540.07 787.498 539.905 784.407 542.508C781.863 544.653 780.687 548.26 779.62 551.684C778.097 556.588 776.538 561.473 775.051 566.395C774.14 569.426 772.398 574.028 775.243 576.704C780.231 581.433 789.413 575.845 792.359 571.462Z" fill="#04D361"/>
<path d="M776.82 577.05C783.258 561.035 796.717 548.059 812.748 543.156" stroke="white" stroke-width="0.7781" stroke-miterlimit="10" stroke-linecap="round" stroke-linejoin="round"/>
<path d="M767.994 563.053C767.775 559.884 768.286 556.588 767.383 553.584C765.769 548.242 760.17 545.457 758.766 540.042C757.088 533.568 762.213 526.957 761.328 520.274C760.954 517.461 759.541 514.987 758.665 512.32C757.79 509.654 757.562 506.321 759.267 504.249C761.055 502.075 764.283 502.331 766.407 504.066C768.523 505.801 769.745 508.604 770.738 511.362C771.723 514.119 772.599 517.014 774.267 519.306C777.313 523.479 782.793 525.305 784.453 530.409C786.149 535.605 782.939 541.092 782.374 546.598C781.945 550.771 783.049 554.917 784.033 558.962C785.018 563.007 785.884 567.289 784.982 571.362C783.787 576.777 779.538 580.228 775.471 576.758C771.45 573.334 768.413 569.006 767.994 563.053Z" fill="#04D361"/>
<path d="M778.042 578.073C779.656 558.743 775.954 537.769 767.328 521.068" stroke="white" stroke-width="0.9754" stroke-miterlimit="10" stroke-linecap="round" stroke-linejoin="round"/>
<path d="M716.2 547.594C715.461 550.762 716.993 554.588 719.41 556.962C721.826 559.345 724.963 560.45 727.945 560.715L735.75 563.29L736.144 562.982C736.144 562.982 736.144 562.982 736.144 562.982C735.083 561.624 733.691 560.998 732.25 560.679C731.211 560.449 730.102 560.371 729.067 560.299C728.696 560.274 728.335 560.248 727.99 560.217L727.989 560.217C725.094 559.96 722.076 558.889 719.761 556.606L719.76 556.606C717.432 554.318 715.998 550.662 716.687 547.708M716.2 547.594L716.687 547.708C716.687 547.708 716.687 547.708 716.687 547.708M716.2 547.594L716.687 547.707C716.687 547.707 716.687 547.707 716.687 547.708M716.2 547.594C716.811 544.991 718.735 543.275 720.568 541.713C723.112 539.54 725.984 537.266 729.404 537.75M716.687 547.708C717.256 545.286 719.047 543.666 720.892 542.094L720.893 542.093C723.468 539.894 726.171 537.798 729.334 538.245L729.335 538.246C730.472 538.405 731.598 538.886 732.8 539.399C732.826 539.41 732.851 539.421 732.877 539.432C734.079 539.945 735.36 540.485 736.684 540.622M736.684 540.622C738.356 540.795 739.862 540.318 741.244 539.61C742.292 539.072 743.303 538.382 744.267 537.724C744.562 537.523 744.851 537.325 745.137 537.135L745.138 537.134C747.618 535.475 750.559 534.326 753.176 535.879M736.684 540.622L736.735 540.125L736.684 540.622C736.684 540.622 736.684 540.622 736.684 540.622ZM729.404 537.75L729.404 537.75L729.404 537.75ZM729.404 537.75C730.608 537.919 731.789 538.423 732.968 538.927C734.217 539.46 735.464 539.993 736.735 540.125C739.451 540.406 741.749 538.837 743.967 537.323C744.266 537.119 744.563 536.916 744.86 536.719C747.358 535.048 750.541 533.733 753.431 535.449M753.431 535.449L753.175 535.879C753.175 535.879 753.175 535.879 753.176 535.879M753.431 535.449L753.176 535.879C753.176 535.879 753.176 535.879 753.176 535.879M753.431 535.449C755.893 536.92 757.252 540.097 758.164 543.056L761.47 551.811M753.176 535.879C754.306 536.554 755.207 537.636 755.943 538.94C756.679 540.243 757.235 541.739 757.686 543.203L757.686 543.204C757.8 543.568 757.911 543.939 758.024 544.313C758.812 546.923 759.656 549.719 761.47 551.811M761.47 551.811C762.758 553.303 764.34 554.222 765.927 555.015C766.315 555.209 766.701 555.394 767.083 555.578C768.288 556.156 769.456 556.718 770.544 557.473L770.545 557.474C773.646 559.62 775.913 563.293 777.298 567.165C777.316 567.216 777.334 567.268 777.353 567.321C777.866 568.758 778.607 570.839 779.036 572.867C779.258 573.918 779.391 574.934 779.371 575.825C779.35 576.722 779.173 577.441 778.826 577.944L778.824 577.946C778.065 579.054 776.711 579.2 775.027 578.783C773.367 578.372 771.613 577.462 770.353 576.792L770.353 576.791C769.9 576.552 769.442 576.301 768.979 576.048C767.98 575.501 766.96 574.943 765.94 574.461C764.44 573.751 762.885 573.175 761.275 572.993L761.275 572.993C758.391 572.666 755.701 573.658 753.24 574.622L753.167 574.65C750.699 575.617 748.292 576.56 745.703 576.396C743.11 576.232 740.255 574.675 738.986 571.938L761.47 551.811ZM761.47 551.811L761.848 551.484L761.469 551.81C761.469 551.811 761.47 551.811 761.47 551.811ZM770.118 577.233C769.654 576.987 769.189 576.732 768.723 576.478C766.271 575.136 763.793 573.781 761.218 573.489C758.474 573.179 755.893 574.119 753.422 575.087L753.303 575.134C750.87 576.087 748.372 577.066 745.671 576.895C742.927 576.722 739.89 575.078 738.531 572.147L770.118 577.233ZM770.118 577.233C772.626 578.566 777.34 580.995 779.237 578.228L770.118 577.233Z" fill="#04D361" stroke="#04D361"/>
<path d="M778.699 577.854C763.827 562.824 746.583 552.397 728.091 547.247" stroke="white" stroke-width="0.8986" stroke-miterlimit="10" stroke-linecap="round" stroke-linejoin="round"/>
<path d="M1204.85 305.597C1204.85 308.491 1202.5 310.838 1199.61 310.838C1196.72 310.838 1194.38 308.491 1194.38 305.597C1194.38 302.702 1196.72 300.355 1199.61 300.355C1202.49 300.355 1204.85 302.702 1204.85 305.597Z" stroke="#04D361" stroke-width="2" stroke-miterlimit="10" stroke-linecap="round" stroke-linejoin="round"/>
<path d="M1203.4 309.213L1207.09 312.919" stroke="#04D361" stroke-width="2" stroke-miterlimit="10" stroke-linecap="round" stroke-linejoin="round"/>
<path d="M1000.07 235L1005.57 240.514" stroke="#04D361" stroke-width="2" stroke-miterlimit="10" stroke-linecap="round" stroke-linejoin="round"/>
<path d="M1005.57 235L1000.07 240.514" stroke="#04D361" stroke-width="2" stroke-miterlimit="10" stroke-linecap="round" stroke-linejoin="round"/>
<path d="M1078.99 552.459L1084.5 557.974" stroke="#04D361" stroke-width="2" stroke-miterlimit="10" stroke-linecap="round" stroke-linejoin="round"/>
<path d="M1084.5 552.459L1078.99 557.974" stroke="#04D361" stroke-width="2" stroke-miterlimit="10" stroke-linecap="round" stroke-linejoin="round"/>
<path d="M729.535 479.386V487.184" stroke="#04D361" stroke-width="2" stroke-miterlimit="10" stroke-linecap="round" stroke-linejoin="round"/>
<path d="M733.439 483.285H725.642" stroke="#04D361" stroke-width="2" stroke-miterlimit="10" stroke-linecap="round" stroke-linejoin="round"/>
<path d="M712.599 419.515C712.599 422.126 710.484 424.254 707.867 424.254C705.259 424.254 703.134 422.135 703.134 419.515C703.134 416.903 705.25 414.776 707.867 414.776C710.484 414.785 712.599 416.903 712.599 419.515Z" stroke="#04D361" stroke-width="2" stroke-miterlimit="10" stroke-linecap="round" stroke-linejoin="round"/>
<path d="M909.027 534.134C909.027 536.746 906.911 538.873 904.294 538.873C901.686 538.873 899.562 536.755 899.562 534.134C899.562 531.523 901.677 529.395 904.294 529.395C906.911 529.404 909.027 531.523 909.027 534.134Z" stroke="#04D361" stroke-width="2" stroke-miterlimit="10" stroke-linecap="round" stroke-linejoin="round"/>
<path d="M1221.34 448.786C1221.34 451.398 1219.22 453.525 1216.61 453.525C1214 453.525 1211.87 451.407 1211.87 448.786C1211.87 446.175 1213.99 444.047 1216.61 444.047C1219.22 444.056 1221.34 446.175 1221.34 448.786Z" stroke="#04D361" stroke-width="2" stroke-miterlimit="10" stroke-linecap="round" stroke-linejoin="round"/>
<path d="M683.928 336.464C683.928 337.137 683.384 337.68 682.714 337.68C682.044 337.68 681.5 337.137 681.5 336.464C681.5 335.792 682.044 335.248 682.714 335.248C683.384 335.248 683.928 335.792 683.928 336.464Z" fill="#9871F5" stroke="#9871F5"/>
<path d="M695.901 336.464C695.901 337.137 695.357 337.68 694.687 337.68C694.017 337.68 693.473 337.137 693.473 336.464C693.473 335.792 694.017 335.248 694.687 335.248C695.357 335.248 695.901 335.792 695.901 336.464Z" fill="#9871F5" stroke="#9871F5"/>
<path d="M707.864 336.464C707.864 337.137 707.32 337.68 706.65 337.68C705.981 337.68 705.436 337.137 705.436 336.464C705.436 335.792 705.981 335.248 706.65 335.248C707.32 335.248 707.864 335.792 707.864 336.464Z" fill="#9871F5" stroke="#9871F5"/>
<path d="M719.837 336.464C719.837 337.137 719.293 337.68 718.623 337.68C717.953 337.68 717.409 337.137 717.409 336.464C717.409 335.792 717.953 335.248 718.623 335.248C719.293 335.248 719.837 335.792 719.837 336.464Z" fill="#9871F5" stroke="#9871F5"/>
<path d="M731.801 336.464C731.801 337.137 731.256 337.68 730.587 337.68C729.917 337.68 729.373 337.137 729.373 336.464C729.373 335.792 729.917 335.248 730.587 335.248C731.256 335.248 731.801 335.792 731.801 336.464Z" fill="#9871F5" stroke="#9871F5"/>
<path d="M743.773 336.464C743.773 337.137 743.229 337.68 742.559 337.68C741.889 337.68 741.345 337.137 741.345 336.464C741.345 335.792 741.889 335.248 742.559 335.248C743.229 335.248 743.773 335.792 743.773 336.464Z" fill="#9871F5" stroke="#9871F5"/>
<path d="M683.928 348.444C683.928 349.117 683.384 349.66 682.714 349.66C682.044 349.66 681.5 349.117 681.5 348.444C681.5 347.772 682.044 347.228 682.714 347.228C683.384 347.228 683.928 347.772 683.928 348.444Z" fill="#9871F5" stroke="#9871F5"/>
<path d="M695.901 348.444C695.901 349.117 695.357 349.66 694.687 349.66C694.017 349.66 693.473 349.117 693.473 348.444C693.473 347.772 694.017 347.228 694.687 347.228C695.357 347.228 695.901 347.772 695.901 348.444Z" fill="#9871F5" stroke="#9871F5"/>
<path d="M707.864 348.444C707.864 349.117 707.32 349.66 706.65 349.66C705.981 349.66 705.436 349.117 705.436 348.444C705.436 347.772 705.981 347.228 706.65 347.228C707.32 347.228 707.864 347.772 707.864 348.444Z" fill="#9871F5" stroke="#9871F5"/>
<path d="M719.837 348.444C719.837 349.117 719.293 349.66 718.623 349.66C717.953 349.66 717.409 349.117 717.409 348.444C717.409 347.772 717.953 347.228 718.623 347.228C719.293 347.228 719.837 347.772 719.837 348.444Z" fill="#9871F5" stroke="#9871F5"/>
<path d="M731.801 348.444C731.801 349.117 731.256 349.66 730.587 349.66C729.917 349.66 729.373 349.117 729.373 348.444C729.373 347.772 729.917 347.228 730.587 347.228C731.256 347.228 731.801 347.772 731.801 348.444Z" fill="#9871F5" stroke="#9871F5"/>
<path d="M743.773 348.444C743.773 349.117 743.229 349.66 742.559 349.66C741.889 349.66 741.345 349.117 741.345 348.444C741.345 347.772 741.889 347.228 742.559 347.228C743.229 347.228 743.773 347.772 743.773 348.444Z" fill="#9871F5" stroke="#9871F5"/>
<path d="M683.928 360.433C683.928 361.106 683.384 361.649 682.714 361.649C682.044 361.649 681.5 361.106 681.5 360.433C681.5 359.761 682.044 359.217 682.714 359.217C683.384 359.217 683.928 359.761 683.928 360.433Z" fill="#9871F5" stroke="#9871F5"/>
<path d="M695.901 360.433C695.901 361.106 695.357 361.649 694.687 361.649C694.017 361.649 693.473 361.106 693.473 360.433C693.473 359.761 694.017 359.217 694.687 359.217C695.357 359.217 695.901 359.761 695.901 360.433Z" fill="#9871F5" stroke="#9871F5"/>
<path d="M707.864 360.433C707.864 361.106 707.32 361.649 706.65 361.649C705.981 361.649 705.436 361.106 705.436 360.433C705.436 359.761 705.981 359.217 706.65 359.217C707.32 359.217 707.864 359.761 707.864 360.433Z" fill="#9871F5" stroke="#9871F5"/>
<path d="M719.837 360.433C719.837 361.106 719.293 361.649 718.623 361.649C717.953 361.649 717.409 361.106 717.409 360.433C717.409 359.761 717.953 359.217 718.623 359.217C719.293 359.217 719.837 359.761 719.837 360.433Z" fill="#9871F5" stroke="#9871F5"/>
<path d="M731.801 360.433C731.801 361.106 731.256 361.649 730.587 361.649C729.917 361.649 729.373 361.106 729.373 360.433C729.373 359.761 729.917 359.217 730.587 359.217C731.256 359.217 731.801 359.761 731.801 360.433Z" fill="#9871F5" stroke="#9871F5"/>
<path d="M743.773 360.433C743.773 361.106 743.229 361.649 742.559 361.649C741.889 361.649 741.345 361.106 741.345 360.433C741.345 359.761 741.889 359.217 742.559 359.217C743.229 359.217 743.773 359.761 743.773 360.433Z" fill="#9871F5" stroke="#9871F5"/>
<path d="M683.928 372.413C683.928 373.086 683.384 373.629 682.714 373.629C682.044 373.629 681.5 373.086 681.5 372.413C681.5 371.741 682.044 371.197 682.714 371.197C683.384 371.197 683.928 371.741 683.928 372.413Z" fill="#9871F5" stroke="#9871F5"/>
<path d="M695.901 372.413C695.901 373.086 695.357 373.629 694.687 373.629C694.017 373.629 693.473 373.086 693.473 372.413C693.473 371.741 694.017 371.197 694.687 371.197C695.357 371.197 695.901 371.741 695.901 372.413Z" fill="#9871F5" stroke="#9871F5"/>
<path d="M707.864 372.413C707.864 373.086 707.32 373.629 706.65 373.629C705.981 373.629 705.436 373.086 705.436 372.413C705.436 371.741 705.981 371.197 706.65 371.197C707.32 371.197 707.864 371.741 707.864 372.413Z" fill="#9871F5" stroke="#9871F5"/>
<path d="M719.837 372.413C719.837 373.086 719.293 373.629 718.623 373.629C717.953 373.629 717.409 373.086 717.409 372.413C717.409 371.741 717.953 371.197 718.623 371.197C719.293 371.197 719.837 371.741 719.837 372.413Z" fill="#9871F5" stroke="#9871F5"/>
<path d="M731.801 372.413C731.801 373.086 731.256 373.629 730.587 373.629C729.917 373.629 729.373 373.086 729.373 372.413C729.373 371.741 729.917 371.197 730.587 371.197C731.256 371.197 731.801 371.741 731.801 372.413Z" fill="#9871F5" stroke="#9871F5"/>
<path d="M743.773 372.413C743.773 373.086 743.229 373.629 742.559 373.629C741.889 373.629 741.345 373.086 741.345 372.413C741.345 371.741 741.889 371.197 742.559 371.197C743.229 371.197 743.773 371.741 743.773 372.413Z" fill="#9871F5" stroke="#9871F5"/>
<path d="M868.624 562.189C868.624 562.862 868.08 563.406 867.41 563.406C866.74 563.406 866.196 562.862 866.196 562.189C866.196 561.517 866.74 560.973 867.41 560.973C868.08 560.973 868.624 561.517 868.624 562.189Z" fill="#9871F5" stroke="#9871F5"/>
<path d="M880.596 562.189C880.596 562.862 880.052 563.406 879.382 563.406C878.713 563.406 878.168 562.862 878.168 562.189C878.168 561.517 878.713 560.973 879.382 560.973C880.052 560.973 880.596 561.517 880.596 562.189Z" fill="#9871F5" stroke="#9871F5"/>
<path d="M892.56 562.189C892.56 562.862 892.016 563.406 891.346 563.406C890.676 563.406 890.132 562.862 890.132 562.189C890.132 561.517 890.676 560.973 891.346 560.973C892.016 560.973 892.56 561.517 892.56 562.189Z" fill="#9871F5" stroke="#9871F5"/>
<path d="M904.533 562.189C904.533 562.862 903.988 563.406 903.319 563.406C902.649 563.406 902.105 562.862 902.105 562.189C902.105 561.517 902.649 560.973 903.319 560.973C903.988 560.973 904.533 561.517 904.533 562.189Z" fill="#9871F5" stroke="#9871F5"/>
<path d="M916.496 562.189C916.496 562.862 915.952 563.406 915.282 563.406C914.612 563.406 914.068 562.862 914.068 562.189C914.068 561.517 914.612 560.973 915.282 560.973C915.952 560.973 916.496 561.517 916.496 562.189Z" fill="#9871F5" stroke="#9871F5"/>
<path d="M868.624 574.178C868.624 574.851 868.08 575.395 867.41 575.395C866.74 575.395 866.196 574.851 866.196 574.178C866.196 573.506 866.74 572.962 867.41 572.962C868.08 572.962 868.624 573.506 868.624 574.178Z" fill="#9871F5" stroke="#9871F5"/>
<path d="M880.596 574.178C880.596 574.851 880.052 575.395 879.382 575.395C878.713 575.395 878.168 574.851 878.168 574.178C878.168 573.506 878.713 572.962 879.382 572.962C880.052 572.962 880.596 573.506 880.596 574.178Z" fill="#9871F5" stroke="#9871F5"/>
<path d="M892.56 574.178C892.56 574.851 892.016 575.395 891.346 575.395C890.676 575.395 890.132 574.851 890.132 574.178C890.132 573.506 890.676 572.962 891.346 572.962C892.016 572.962 892.56 573.506 892.56 574.178Z" fill="#9871F5" stroke="#9871F5"/>
<path d="M904.533 574.178C904.533 574.851 903.988 575.395 903.319 575.395C902.649 575.395 902.105 574.851 902.105 574.178C902.105 573.506 902.649 572.962 903.319 572.962C903.988 572.962 904.533 573.506 904.533 574.178Z" fill="#9871F5" stroke="#9871F5"/>
<path d="M916.496 574.178C916.496 574.851 915.952 575.395 915.282 575.395C914.612 575.395 914.068 574.851 914.068 574.178C914.068 573.506 914.612 572.962 915.282 572.962C915.952 572.962 916.496 573.506 916.496 574.178Z" fill="#9871F5" stroke="#9871F5"/>
<path d="M1171.93 262.398C1171.93 263.07 1171.39 263.614 1170.72 263.614C1170.05 263.614 1169.5 263.07 1169.5 262.398C1169.5 261.725 1170.05 261.181 1170.72 261.181C1171.39 261.181 1171.93 261.725 1171.93 262.398Z" fill="#9871F5" stroke="#9871F5"/>
<path d="M1183.89 262.398C1183.89 263.07 1183.35 263.614 1182.68 263.614C1182.01 263.614 1181.47 263.07 1181.47 262.398C1181.47 261.725 1182.01 261.181 1182.68 261.181C1183.35 261.181 1183.89 261.725 1183.89 262.398Z" fill="#9871F5" stroke="#9871F5"/>
<path d="M1195.87 262.398C1195.87 263.07 1195.32 263.614 1194.65 263.614C1193.98 263.614 1193.44 263.07 1193.44 262.398C1193.44 261.725 1193.98 261.181 1194.65 261.181C1195.32 261.181 1195.87 261.725 1195.87 262.398Z" fill="#9871F5" stroke="#9871F5"/>
<path d="M1171.93 274.387C1171.93 275.059 1171.39 275.603 1170.72 275.603C1170.05 275.603 1169.5 275.059 1169.5 274.387C1169.5 273.714 1170.05 273.17 1170.72 273.17C1171.39 273.17 1171.93 273.714 1171.93 274.387Z" fill="#9871F5" stroke="#9871F5"/>
<path d="M1183.89 274.387C1183.89 275.059 1183.35 275.603 1182.68 275.603C1182.01 275.603 1181.47 275.059 1181.47 274.387C1181.47 273.714 1182.01 273.17 1182.68 273.17C1183.35 273.17 1183.89 273.714 1183.89 274.387Z" fill="#9871F5" stroke="#9871F5"/>
<path d="M1195.87 274.387C1195.87 275.059 1195.32 275.603 1194.65 275.603C1193.98 275.603 1193.44 275.059 1193.44 274.387C1193.44 273.714 1193.98 273.17 1194.65 273.17C1195.32 273.17 1195.87 273.714 1195.87 274.387Z" fill="#9871F5" stroke="#9871F5"/>
<path d="M858.582 239.716C858.582 240.389 858.038 240.933 857.368 240.933C856.698 240.933 856.154 240.389 856.154 239.716C856.154 239.044 856.698 238.5 857.368 238.5C858.038 238.5 858.582 239.044 858.582 239.716Z" fill="#9871F5" stroke="#9871F5"/>
<path d="M870.546 239.716C870.546 240.389 870.002 240.933 869.332 240.933C868.662 240.933 868.118 240.389 868.118 239.716C868.118 239.044 868.662 238.5 869.332 238.5C870.002 238.5 870.546 239.044 870.546 239.716Z" fill="#9871F5" stroke="#9871F5"/>
<path d="M882.518 239.716C882.518 240.389 881.974 240.933 881.304 240.933C880.635 240.933 880.09 240.389 880.09 239.716C880.09 239.044 880.635 238.5 881.304 238.5C881.974 238.5 882.518 239.044 882.518 239.716Z" fill="#9871F5" stroke="#9871F5"/>
<path d="M858.582 251.705C858.582 252.378 858.038 252.922 857.368 252.922C856.698 252.922 856.154 252.378 856.154 251.705C856.154 251.033 856.698 250.489 857.368 250.489C858.038 250.489 858.582 251.033 858.582 251.705Z" fill="#9871F5" stroke="#9871F5"/>
<path d="M870.546 251.705C870.546 252.378 870.001 252.922 869.332 252.922C868.662 252.922 868.118 252.378 868.118 251.705C868.118 251.033 868.662 250.489 869.332 250.489C870.002 250.489 870.546 251.033 870.546 251.705Z" fill="#9871F5" stroke="#9871F5"/>
<path d="M882.518 251.705C882.518 252.378 881.974 252.922 881.304 252.922C880.635 252.922 880.09 252.378 880.09 251.705C880.09 251.033 880.635 250.489 881.304 250.489C881.974 250.489 882.518 251.033 882.518 251.705Z" fill="#9871F5" stroke="#9871F5"/>
<path d="M1279.5 424.4C1279.5 425.072 1278.96 425.616 1278.29 425.616C1277.62 425.616 1277.07 425.072 1277.07 424.4C1277.07 423.728 1277.62 423.184 1278.29 423.184C1278.96 423.184 1279.5 423.728 1279.5 424.4Z" fill="#9871F5" stroke="#9871F5"/>
<path d="M1279.5 436.389C1279.5 437.061 1278.96 437.605 1278.29 437.605C1277.62 437.605 1277.07 437.061 1277.07 436.389C1277.07 435.717 1277.62 435.173 1278.29 435.173C1278.96 435.173 1279.5 435.717 1279.5 436.389Z" fill="#9871F5" stroke="#9871F5"/>
<path d="M1279.5 448.369C1279.5 449.041 1278.96 449.585 1278.29 449.585C1277.62 449.585 1277.07 449.041 1277.07 448.369C1277.07 447.697 1277.62 447.153 1278.29 447.153C1278.96 447.153 1279.5 447.697 1279.5 448.369Z" fill="#9871F5" stroke="#9871F5"/>
<path d="M1279.5 460.358C1279.5 461.03 1278.96 461.574 1278.29 461.574C1277.62 461.574 1277.07 461.03 1277.07 460.358C1277.07 459.686 1277.62 459.142 1278.29 459.142C1278.96 459.142 1279.5 459.686 1279.5 460.358Z" fill="#9871F5" stroke="#9871F5"/>
<path d="M1279.5 472.338C1279.5 473.01 1278.96 473.554 1278.29 473.554C1277.62 473.554 1277.07 473.01 1277.07 472.338C1277.07 471.666 1277.62 471.122 1278.29 471.122C1278.96 471.122 1279.5 471.666 1279.5 472.338Z" fill="#9871F5" stroke="#9871F5"/>
<path d="M1279.5 484.327C1279.5 484.999 1278.96 485.543 1278.29 485.543C1277.62 485.543 1277.07 484.999 1277.07 484.327C1277.07 483.655 1277.62 483.111 1278.29 483.111C1278.96 483.111 1279.5 483.655 1279.5 484.327Z" fill="#9871F5" stroke="#9871F5"/>
<path d="M1279.5 496.307C1279.5 496.979 1278.96 497.523 1278.29 497.523C1277.62 497.523 1277.07 496.979 1277.07 496.307C1277.07 495.635 1277.62 495.091 1278.29 495.091C1278.96 495.091 1279.5 495.635 1279.5 496.307Z" fill="#9871F5" stroke="#9871F5"/>
<path d="M1267.53 424.4C1267.53 425.072 1266.98 425.616 1266.31 425.616C1265.64 425.616 1265.1 425.072 1265.1 424.4C1265.1 423.728 1265.64 423.184 1266.31 423.184C1266.98 423.184 1267.53 423.728 1267.53 424.4Z" fill="#9871F5" stroke="#9871F5"/>
<path d="M1267.53 436.389C1267.53 437.061 1266.98 437.605 1266.31 437.605C1265.64 437.605 1265.1 437.061 1265.1 436.389C1265.1 435.717 1265.64 435.173 1266.31 435.173C1266.98 435.173 1267.53 435.717 1267.53 436.389Z" fill="#9871F5" stroke="#9871F5"/>
<path d="M1267.53 448.369C1267.53 449.041 1266.98 449.585 1266.31 449.585C1265.64 449.585 1265.1 449.041 1265.1 448.369C1265.1 447.697 1265.64 447.153 1266.31 447.153C1266.98 447.153 1267.53 447.697 1267.53 448.369Z" fill="#9871F5" stroke="#9871F5"/>
<path d="M1267.53 460.358C1267.53 461.03 1266.98 461.574 1266.31 461.574C1265.64 461.574 1265.1 461.03 1265.1 460.358C1265.1 459.686 1265.64 459.142 1266.31 459.142C1266.98 459.142 1267.53 459.686 1267.53 460.358Z" fill="#9871F5" stroke="#9871F5"/>
<path d="M1267.53 472.338C1267.53 473.01 1266.98 473.554 1266.31 473.554C1265.64 473.554 1265.1 473.01 1265.1 472.338C1265.1 471.666 1265.64 471.122 1266.31 471.122C1266.98 471.122 1267.53 471.666 1267.53 472.338Z" fill="#9871F5" stroke="#9871F5"/>
<path d="M1267.53 484.327C1267.53 484.999 1266.98 485.543 1266.31 485.543C1265.64 485.543 1265.1 484.999 1265.1 484.327C1265.1 483.655 1265.64 483.111 1266.31 483.111C1266.98 483.111 1267.53 483.655 1267.53 484.327Z" fill="#9871F5" stroke="#9871F5"/>
<path d="M1267.53 496.307C1267.53 496.979 1266.98 497.523 1266.31 497.523C1265.64 497.523 1265.1 496.979 1265.1 496.307C1265.1 495.635 1265.64 495.091 1266.31 495.091C1266.98 495.091 1267.53 495.635 1267.53 496.307Z" fill="#9871F5" stroke="#9871F5"/>
<path d="M1255.56 424.4C1255.56 425.072 1255.02 425.616 1254.35 425.616C1253.68 425.616 1253.14 425.072 1253.14 424.4C1253.14 423.728 1253.68 423.184 1254.35 423.184C1255.02 423.184 1255.56 423.728 1255.56 424.4Z" fill="#9871F5" stroke="#9871F5"/>
<path d="M1255.56 436.389C1255.56 437.061 1255.02 437.605 1254.35 437.605C1253.68 437.605 1253.14 437.061 1253.14 436.389C1253.14 435.717 1253.68 435.173 1254.35 435.173C1255.02 435.173 1255.56 435.717 1255.56 436.389Z" fill="#9871F5" stroke="#9871F5"/>
<path d="M1255.56 448.369C1255.56 449.041 1255.02 449.585 1254.35 449.585C1253.68 449.585 1253.14 449.041 1253.14 448.369C1253.14 447.697 1253.68 447.153 1254.35 447.153C1255.02 447.153 1255.56 447.697 1255.56 448.369Z" fill="#9871F5" stroke="#9871F5"/>
<path d="M1255.56 460.358C1255.56 461.03 1255.02 461.574 1254.35 461.574C1253.68 461.574 1253.14 461.03 1253.14 460.358C1253.14 459.686 1253.68 459.142 1254.35 459.142C1255.02 459.142 1255.56 459.686 1255.56 460.358Z" fill="#9871F5" stroke="#9871F5"/>
<path d="M1255.56 472.338C1255.56 473.01 1255.02 473.554 1254.35 473.554C1253.68 473.554 1253.14 473.01 1253.14 472.338C1253.14 471.666 1253.68 471.122 1254.35 471.122C1255.02 471.122 1255.56 471.666 1255.56 472.338Z" fill="#9871F5" stroke="#9871F5"/>
<path d="M1255.56 484.327C1255.56 484.999 1255.02 485.543 1254.35 485.543C1253.68 485.543 1253.14 484.999 1253.14 484.327C1253.14 483.655 1253.68 483.111 1254.35 483.111C1255.02 483.111 1255.56 483.655 1255.56 484.327Z" fill="#9871F5" stroke="#9871F5"/>
<path d="M1255.56 496.307C1255.56 496.979 1255.02 497.523 1254.35 497.523C1253.68 497.523 1253.14 496.979 1253.14 496.307C1253.14 495.635 1253.68 495.091 1254.35 495.091C1255.02 495.091 1255.56 495.635 1255.56 496.307Z" fill="#9871F5" stroke="#9871F5"/>
<path d="M1243.59 424.4C1243.59 425.072 1243.05 425.616 1242.38 425.616C1241.71 425.616 1241.16 425.072 1241.16 424.4C1241.16 423.728 1241.71 423.184 1242.38 423.184C1243.05 423.184 1243.59 423.728 1243.59 424.4Z" fill="#9871F5" stroke="#9871F5"/>
<path d="M1243.59 436.389C1243.59 437.061 1243.05 437.605 1242.38 437.605C1241.71 437.605 1241.16 437.061 1241.16 436.389C1241.16 435.717 1241.71 435.173 1242.38 435.173C1243.05 435.173 1243.59 435.717 1243.59 436.389Z" fill="#9871F5" stroke="#9871F5"/>
<path d="M1243.59 448.369C1243.59 449.041 1243.05 449.585 1242.38 449.585C1241.71 449.585 1241.16 449.041 1241.16 448.369C1241.16 447.697 1241.71 447.153 1242.38 447.153C1243.05 447.153 1243.59 447.697 1243.59 448.369Z" fill="#9871F5" stroke="#9871F5"/>
<path d="M1243.59 460.358C1243.59 461.03 1243.05 461.574 1242.38 461.574C1241.71 461.574 1241.16 461.03 1241.16 460.358C1241.16 459.686 1241.71 459.142 1242.38 459.142C1243.05 459.142 1243.59 459.686 1243.59 460.358Z" fill="#9871F5" stroke="#9871F5"/>
<path d="M1243.59 472.338C1243.59 473.01 1243.05 473.554 1242.38 473.554C1241.71 473.554 1241.16 473.01 1241.16 472.338C1241.16 471.666 1241.71 471.122 1242.38 471.122C1243.05 471.122 1243.59 471.666 1243.59 472.338Z" fill="#9871F5" stroke="#9871F5"/>
<path d="M1243.59 484.327C1243.59 484.999 1243.05 485.543 1242.38 485.543C1241.71 485.543 1241.16 484.999 1241.16 484.327C1241.16 483.655 1241.71 483.111 1242.38 483.111C1243.05 483.111 1243.59 483.655 1243.59 484.327Z" fill="#9871F5" stroke="#9871F5"/>
<path d="M1243.59 496.307C1243.59 496.979 1243.05 497.523 1242.38 497.523C1241.71 497.523 1241.16 496.979 1241.16 496.307C1241.16 495.635 1241.71 495.091 1242.38 495.091C1243.05 495.091 1243.59 495.635 1243.59 496.307Z" fill="#9871F5" stroke="#9871F5"/>
<path d="M1140.05 495.842H829.286C823.676 495.842 819.118 491.248 819.118 485.574V294.031C819.118 288.357 823.676 283.762 829.286 283.762H1140.06C1145.67 283.762 1150.23 288.357 1150.23 294.031V485.573C1150.22 491.248 1145.66 495.842 1140.05 495.842Z" fill="#04D361" stroke="#04D361"/>
<path d="M1139.6 487.268H829.733C824.927 487.268 821.025 483.36 821.025 478.548V294.073C821.025 289.261 824.927 285.353 829.733 285.353H1139.6C1144.41 285.353 1148.31 289.261 1148.31 294.073V478.548C1148.31 483.369 1144.41 487.268 1139.6 487.268Z" fill="white"/>
<path d="M1037.69 302.611V432.765C1037.69 436.691 1034.52 439.869 1030.6 439.869H834.894C833.135 439.869 831.521 439.23 830.28 438.161C828.767 436.856 827.8 434.929 827.8 432.765V302.611C827.8 298.684 830.983 295.507 834.894 295.507H1030.6C1032.36 295.507 1033.98 296.146 1035.21 297.214C1036.73 298.52 1037.69 300.447 1037.69 302.611Z" fill="#E6E6F0"/>
<path d="M1134.5 351.142H1053.49C1049.57 351.142 1046.4 347.965 1046.4 344.038V302.611C1046.4 298.684 1049.57 295.507 1053.49 295.507H1134.5C1138.42 295.507 1141.59 298.684 1141.59 302.611V344.038C1141.59 347.965 1138.41 351.142 1134.5 351.142Z" fill="#E6E6F0"/>
<path d="M1134.5 416.636H1053.49C1049.57 416.636 1046.4 413.458 1046.4 409.532V368.104C1046.4 364.178 1049.57 361 1053.49 361H1134.5C1138.42 361 1141.59 364.178 1141.59 368.104V409.532C1141.59 413.458 1138.41 416.636 1134.5 416.636Z" fill="#E6E6F0"/>
<path d="M1134.5 478.691H1053.49C1049.57 478.691 1046.4 475.513 1046.4 471.587V434.104C1046.4 430.178 1049.57 427 1053.49 427H1134.5C1138.42 427 1141.59 430.178 1141.59 434.104V471.587C1141.59 475.513 1138.41 478.691 1134.5 478.691Z" fill="#E6E6F0"/>
<path d="M934.825 453.839H830.381C828.958 453.839 827.809 452.689 827.809 451.265C827.809 449.84 828.958 448.69 830.381 448.69H934.825C936.247 448.69 937.396 449.84 937.396 451.265C937.396 452.68 936.247 453.839 934.825 453.839Z" fill="#E6E6F0"/>
<path d="M940.853 478H830.485C828.981 478 827.767 476.884 827.767 475.501V465.499C827.767 464.116 828.981 463 830.485 463H940.853C942.357 463 943.571 464.116 943.571 465.499V475.501C943.571 476.884 942.357 478 940.853 478Z" fill="#E6E6F0"/>
<path d="M1012.15 453.839H1035.12C1036.54 453.839 1037.69 452.689 1037.69 451.265C1037.69 449.84 1036.54 448.69 1035.12 448.69H1012.15C1010.73 448.69 1009.58 449.84 1009.58 451.265C1009.58 452.68 1010.73 453.839 1012.15 453.839Z" fill="#E6E6F0"/>
<path d="M973.187 453.839H996.156C997.579 453.839 998.728 452.689 998.728 451.265C998.728 449.84 997.579 448.69 996.156 448.69H973.187C971.764 448.69 970.615 449.84 970.615 451.265C970.606 452.68 971.764 453.839 973.187 453.839Z" fill="#E6E6F0"/>
<path d="M989.564 478.11H1035.12C1036.54 478.11 1037.69 476.959 1037.69 475.535V465.226C1037.69 463.801 1036.54 462.651 1035.12 462.651H989.564C988.141 462.651 986.992 463.801 986.992 465.226V475.535C986.992 476.959 988.141 478.11 989.564 478.11Z" fill="#E6E6F0"/>
<g opacity="0.24">
<path d="M1093.7 338.14C1101.63 338.14 1108.06 331.701 1108.06 323.758C1108.06 315.816 1101.63 309.377 1093.7 309.377C1085.77 309.377 1079.34 315.816 1079.34 323.758C1079.34 331.701 1085.77 338.14 1093.7 338.14Z" fill="#E6E6F0" stroke="#6842C2" stroke-width="2" stroke-miterlimit="10"/>
<path d="M1099.59 322.34L1091.39 317.601C1090.49 317.081 1089.37 317.729 1089.37 318.77V328.248C1089.37 329.289 1090.49 329.937 1091.39 329.417L1099.59 324.678C1100.49 324.157 1100.49 322.861 1099.59 322.34Z" fill="#E6E6F0" stroke="#6842C2" stroke-width="2" stroke-miterlimit="10"/>
</g>
<g opacity="0.24">
<path d="M1093.7 402.763C1101.63 402.763 1108.06 396.324 1108.06 388.381C1108.06 380.439 1101.63 374 1093.7 374C1085.77 374 1079.34 380.439 1079.34 388.381C1079.34 396.324 1085.77 402.763 1093.7 402.763Z" fill="#E6E6F0" stroke="#6842C2" stroke-width="2" stroke-miterlimit="10"/>
<path d="M1099.59 386.963L1091.39 382.224C1090.49 381.704 1089.37 382.352 1089.37 383.393V392.871C1089.37 393.912 1090.49 394.56 1091.39 394.04L1099.59 389.301C1100.49 388.78 1100.49 387.484 1099.59 386.963Z" fill="#E6E6F0" stroke="#6842C2" stroke-width="2" stroke-miterlimit="10"/>
</g>
<g opacity="0.24">
<path d="M1093.7 466.763C1101.63 466.763 1108.06 460.324 1108.06 452.381C1108.06 444.439 1101.63 438 1093.7 438C1085.77 438 1079.34 444.439 1079.34 452.381C1079.34 460.324 1085.77 466.763 1093.7 466.763Z" fill="#E6E6F0" stroke="#6842C2" stroke-width="2" stroke-miterlimit="10"/>
<path d="M1099.59 450.963L1091.39 446.224C1090.49 445.704 1089.37 446.352 1089.37 447.393V456.871C1089.37 457.912 1090.49 458.56 1091.39 458.04L1099.59 453.301C1100.49 452.78 1100.49 451.484 1099.59 450.963Z" fill="#E6E6F0" stroke="#6842C2" stroke-width="2" stroke-miterlimit="10"/>
</g>
<path d="M1035.21 297.214L830.28 438.161C828.767 436.856 827.8 434.929 827.8 432.765V302.611C827.8 298.684 830.983 295.507 834.894 295.507H1030.6C1032.36 295.507 1033.98 296.146 1035.21 297.214Z" fill="#F2F2FA"/>
<mask id="mask0" mask-type="alpha" maskUnits="userSpaceOnUse" x="828" y="266" width="210" height="175">
<path d="M1037.95 274.819V431.587C1037.95 436.316 1034.78 440.144 1030.87 440.144H835.512C833.755 440.144 832.144 439.374 830.906 438.087C829.395 436.514 828.43 434.194 828.43 431.587V274.819C828.43 270.09 831.607 266.262 835.512 266.262H1030.87C1032.62 266.262 1034.24 267.032 1035.47 268.319C1036.99 269.892 1037.95 272.212 1037.95 274.819Z" fill="#A3D1DE"/>
</mask>
<g mask="url(#mask0)">
<path d="M1021.44 376.967C1021.44 376.967 1033.14 367.718 1033.45 365.07C1034.04 360.084 1035.82 356.176 1046.53 352.871C1046.53 352.871 1047.36 354.459 1045.87 356.185C1044.25 358.057 1042.96 358.714 1042.96 358.714C1042.96 358.714 1045.8 359.801 1050.02 356.496C1054.24 353.199 1056.02 350.332 1057.8 351.035C1057.8 351.035 1059.9 349.136 1060.89 349.437C1060.89 349.437 1061.62 349.656 1061.48 350.442C1063.13 350.186 1062.8 354.952 1059.86 358.824C1055.64 364.394 1050.37 369.188 1046.05 370.767C1042.82 371.955 1029.44 385.587 1029.44 385.587L1021.44 376.967Z" fill="#FFCAD0"/>
<path d="M985.314 424.157C980.208 425.883 951.877 382.254 951.877 382.254C940.925 369.635 950.755 328.071 960.667 342.644C960.667 342.644 986.445 389.34 989.226 393.102C992.682 397.777 1004.18 417.774 985.314 424.157Z" fill="#04D361"/>
<path d="M953.39 467.465H878.691C878.691 467.465 872.955 464.936 877.943 453.906C879.812 449.788 879.001 439.177 878.691 424.613C878.062 395.814 869.527 348.013 880.059 342.534C886.369 339.238 899.773 334.901 909.502 331.933C910.086 331.769 910.651 331.595 911.208 331.431C916.888 329.732 920.946 328.609 920.946 328.609C920.946 328.609 925.651 329.294 935.208 332.125C935.727 332.28 936.265 332.444 936.822 332.609C939.311 333.367 942.083 334.252 945.165 335.302C961.87 340.991 959.992 338.964 962.208 359.856C963.977 376.538 953.39 467.465 953.39 467.465Z" fill="#04D361"/>
<path d="M936.822 332.6C936.603 336.142 935.016 339.274 932.6 341.566C930.147 343.913 926.819 345.337 923.189 345.337C915.703 345.337 909.648 339.338 909.493 331.933C910.077 331.769 910.642 331.595 911.199 331.431C916.879 329.732 920.937 328.609 920.937 328.609C920.937 328.609 925.642 329.294 935.199 332.125C935.718 332.271 936.266 332.435 936.822 332.6Z" fill="#F2F2FA"/>
<path d="M935.18 302.695L934.004 325.45L933.667 331.942C933.53 334.7 932.317 337.156 930.439 338.927C928.579 340.699 926.062 341.776 923.308 341.776C917.481 341.776 912.785 336.964 912.94 331.139L913.232 319.551L913.724 300.303L935.18 302.695Z" fill="#FBD5D9"/>
<path d="M935.181 307.243L934.004 328.673C923.937 329.075 916.597 324.984 913.232 319.524L913.725 304.869L935.181 307.243Z" fill="#FFA4AD"/>
<path d="M907.04 280.416C907.04 280.416 897.393 279.21 898.496 291.318C899.354 300.705 912.092 313.233 912.092 313.233C912.092 313.233 920.135 284.945 907.04 280.416Z" fill="#8F4A3F"/>
<path d="M946.442 289.136C945.785 290.633 944.773 291.939 943.943 293.345C943.123 294.751 942.466 296.358 942.649 297.984C942.485 295.345 940.743 293.126 939.238 290.962C937.734 288.789 936.366 286.159 937.086 283.621C937.77 281.183 942.174 277.338 944.855 278.918C947.837 280.671 947.609 286.479 946.442 289.136Z" fill="#0E1235"/>
<path d="M943.168 289.62C943.168 289.62 943.916 297.034 942.877 305.243C941.673 314.73 942.102 325.87 928.141 326.619C913.241 327.413 908.308 310.712 908.308 310.712C908.308 310.712 900.393 309.233 899.855 303.882C899.317 298.522 904.843 298.221 906.649 299.728C906.649 299.728 908.691 279.758 927.12 279.758C943.378 279.74 943.168 289.62 943.168 289.62Z" fill="#FBD5D9"/>
<path d="M925.66 304.859C925.66 305.672 925.004 306.338 924.183 306.338C923.363 306.338 922.706 305.681 922.706 304.859C922.706 304.047 923.363 303.38 924.183 303.38C925.004 303.38 925.66 304.047 925.66 304.859Z" fill="#9A5449"/>
<path d="M939.01 304.859C939.01 305.672 938.353 306.338 937.533 306.338C936.712 306.338 936.056 305.681 936.056 304.859C936.056 304.047 936.712 303.38 937.533 303.38C938.353 303.38 939.01 304.047 939.01 304.859Z" fill="#9A5449"/>
<path d="M918.813 299.719C918.813 299.719 921.001 296.112 925.661 297.408" stroke="#561E15" stroke-width="1.0274" stroke-miterlimit="10" stroke-linecap="round" stroke-linejoin="round"/>
<path d="M933.694 297.354C933.694 297.354 937.059 294.276 940.369 297.646" stroke="#561E15" stroke-width="1.0274" stroke-miterlimit="10" stroke-linecap="round" stroke-linejoin="round"/>
<path d="M930.74 301.015C930.74 301.015 932.335 305.097 933.694 307.635C935.053 310.174 931.041 311.306 931.041 311.306" stroke="#D66D78" stroke-width="0.7706" stroke-miterlimit="10" stroke-linecap="round" stroke-linejoin="round"/>
<path d="M925.396 315.871C925.396 315.871 928.688 319.067 932.919 317.113" stroke="#D66D78" stroke-width="0.7706" stroke-miterlimit="10" stroke-linecap="round" stroke-linejoin="round"/>
<path d="M906.383 305.598C906.383 305.598 906.338 301.006 902.91 302.257" stroke="#D66D78" stroke-width="0.7706" stroke-miterlimit="10" stroke-linecap="round" stroke-linejoin="round"/>
<path d="M910.907 284.251C910.907 284.251 919.287 292.797 914.7 296.066C909.594 299.71 908.801 304.859 908.801 304.859C908.801 304.859 908.91 303.042 906.639 299.719C904.369 296.386 899.418 284.57 910.907 284.251Z" fill="#8F4A3F"/>
<path d="M985.315 424.157C991.406 428.129 1037.7 378.611 1037.7 378.611L1029.48 367.845C1029.48 367.845 994.287 389.961 989.226 393.102C981.932 397.622 964.825 410.807 985.315 424.157Z" fill="#04D361"/>
<path d="M960.694 395.366C960.694 395.366 962.764 372.731 962.409 365.544C962.409 365.544 965.354 384.546 965.427 402.105L960.694 395.366Z" fill="#03A14A"/>
<path d="M882.466 387.651C882.466 387.651 893.308 341.164 881.709 341.712C881.709 341.712 877.925 342.169 870.521 353.674C865.341 361.718 859.67 375.662 849.329 398.343C844.442 409.063 838.332 423.572 849.676 424.348C855.812 424.768 862.25 421.408 866.044 414.35C872.992 401.42 882.466 387.651 882.466 387.651Z" fill="#04D361"/>
<path d="M892.168 445.514L951.175 431.589C951.165 431.589 932.609 445.514 892.168 445.514Z" fill="#03A14A"/>
<path d="M876.32 396.992C876.32 396.992 885.84 380.108 890.901 371.872L879.019 436.456C879.019 436.456 877.861 410.077 876.32 396.992Z" fill="#03A14A"/>
<path d="M914.263 418.989L878.974 435.488L880.788 418.523L914.263 418.989Z" fill="#03A14A"/>
<path d="M920.043 416.166L920.043 416.166L925.87 384.307L925.87 384.306C926.173 382.628 927.634 381.412 929.345 381.412H941.728C943.932 381.412 945.602 383.412 945.202 385.588L945.202 385.588L939.376 417.446C939.376 417.446 939.376 417.446 939.376 417.446C939.064 419.127 937.601 420.342 935.901 420.342H923.518C921.313 420.342 919.643 418.343 920.043 416.166Z" fill="#04D361" stroke="#04D361"/>
<path d="M937.433 422.193H925.049C922.533 422.193 920.627 419.911 921.083 417.427L926.91 385.569C927.256 383.651 928.925 382.263 930.876 382.263H943.259C945.776 382.263 947.682 384.546 947.226 387.03L941.399 418.888C941.053 420.805 939.384 422.193 937.433 422.193Z" fill="white"/>
<path d="M928.231 393.552L928.232 393.548L929.654 385.768L929.654 385.768L929.655 385.764C929.676 385.643 929.784 385.548 929.919 385.548H932.135C932.307 385.548 932.432 385.703 932.401 385.867L932.4 385.872L930.977 393.651L930.977 393.651L930.977 393.655C930.956 393.777 930.848 393.871 930.712 393.871H928.497C928.325 393.871 928.199 393.717 928.231 393.552Z" fill="#04D361" stroke="#04D361"/>
<path d="M902.627 404.963C902.627 404.963 908.664 404.762 913.287 403.347C915.275 402.735 919.214 402.023 920.518 400.133C921.831 398.225 921.712 394.106 923.025 393.933C924.038 393.796 926.062 397.019 925.542 399.192C925.032 401.32 924.785 402.498 924.01 403.448C923.755 403.767 932.263 404.37 937.652 403.183C941.345 402.37 940.25 406.032 937.743 407.182C937.743 407.182 938.636 409.419 936.019 410.177C936.019 410.177 936.047 413.163 933.548 413.3C933.266 413.994 932.782 415.473 930.621 416.003C927.475 416.779 922.725 417.071 917.937 416.642C915.503 416.423 904.269 418.395 904.269 418.395L902.627 404.963Z" fill="#FFCAD0"/>
<path d="M849.311 424.522C857.928 426.029 909.293 420.221 909.293 420.221L908.016 402.224C908.016 402.224 866.162 404.178 860.581 403.676C842.125 402.041 838.587 422.65 849.311 424.522Z" fill="#04D361"/>
<path d="M912.94 270.681C913.825 269.795 914.81 268.855 916.05 268.718C917.29 268.581 918.703 269.741 918.293 270.928C922.515 269.092 926.928 267.723 931.442 266.846C932.573 266.627 933.794 266.444 934.843 266.947C935.883 267.449 936.53 268.901 935.819 269.805C938.007 270.626 940.433 270.088 942.758 269.814C945.083 269.54 947.737 269.659 949.314 271.384C950.782 272.982 950.81 275.393 950.764 277.566C950.691 280.543 950.618 283.538 949.943 286.441C948.94 290.733 946.606 294.696 943.332 297.645C944.308 294.303 942.567 290.596 939.822 288.45C937.086 286.295 933.557 285.446 930.101 285.053C925.962 284.579 921.749 284.688 917.627 285.364C914.518 285.875 910.077 288.094 906.986 286.688C900.138 283.583 910.296 273.329 912.94 270.681Z" fill="#8F4A3F"/>
</g>
<path d="M1018.8 309.158H975.922C972.64 309.158 969.977 306.491 969.977 303.204V285.198C969.977 281.911 972.64 279.244 975.922 279.244H1018.8C1022.08 279.244 1024.74 281.911 1024.74 285.198V303.204C1024.74 306.491 1022.08 309.158 1018.8 309.158Z" fill="#04D361"/>
<path d="M979.15 307.222V315.422L987.922 306.638L979.15 307.222Z" fill="#04D361"/>
<path d="M982.57 297.625C984.458 297.625 985.989 296.092 985.989 294.201C985.989 292.31 984.458 290.777 982.57 290.777C980.681 290.777 979.15 292.31 979.15 294.201C979.15 296.092 980.681 297.625 982.57 297.625Z" fill="#E6E6F0"/>
<path d="M997.36 297.625C999.248 297.625 1000.78 296.092 1000.78 294.201C1000.78 292.31 999.248 290.777 997.36 290.777C995.471 290.777 993.94 292.31 993.94 294.201C993.94 296.092 995.471 297.625 997.36 297.625Z" fill="#E6E6F0"/>
<path d="M1012.15 297.625C1014.04 297.625 1015.57 296.092 1015.57 294.201C1015.57 292.31 1014.04 290.777 1012.15 290.777C1010.26 290.777 1008.73 292.31 1008.73 294.201C1008.73 296.092 1010.26 297.625 1012.15 297.625Z" fill="#E6E6F0"/>
<path d="M1136.74 552.882L1134.8 576.541H1144.87L1150.11 552.882H1136.74Z" fill="#FEC9CF"/>
<path d="M1145.97 571.591C1145.97 571.591 1150.34 578.668 1147.06 579.928C1143.78 581.188 1122.17 581.298 1116.83 580.503C1111.5 579.7 1128.73 572.386 1132.67 571.235C1136.62 570.085 1137.89 576.084 1145.97 571.591Z" fill="#6842C2"/>
<path d="M1189.72 552.882L1191.65 576.541H1181.57L1176.35 552.882H1189.72Z" fill="#FEC9CF"/>
<path d="M1180.48 571.591C1180.48 571.591 1176.1 578.668 1179.39 579.928C1182.67 581.188 1204.28 581.298 1209.61 580.503C1214.95 579.7 1197.71 572.386 1193.77 571.235C1189.83 570.085 1188.56 576.084 1180.48 571.591Z" fill="#6842C2"/>
<path d="M1134.71 423.522L1130.14 565.373H1151.42L1156 470.894L1174.23 568.085L1197.4 564.223C1197.4 564.223 1176.49 458.202 1172.93 423.531H1134.71V423.522Z" fill="#D8D8E3"/>
<path d="M1155.03 477.401L1154.3 462.101L1155.5 470.901L1155.03 477.401Z" fill="#194248" stroke="#C9C9D4"/>
<path d="M1166.09 423.522L1190.71 565.017" stroke="#C9C9D4" stroke-miterlimit="10" stroke-linecap="round" stroke-linejoin="round"/>
<path d="M1160.97 318.962C1165.51 318.971 1170.33 321.355 1171.86 325.637C1173.05 328.933 1172.15 332.823 1173.81 335.91C1175.04 338.192 1177.48 339.662 1178.58 342C1180.86 346.858 1176.42 352.629 1177.83 357.797C1179.14 362.581 1185.06 365.321 1185.55 370.261C1185.87 373.411 1183.65 376.433 1180.8 377.803C1177.95 379.182 1174.62 379.173 1171.5 378.652C1163.85 377.365 1156.64 373.164 1148.89 373.566C1145.7 373.73 1142.36 374.662 1139.41 373.429C1137.3 372.552 1135.78 370.699 1134.44 368.854C1132.9 366.736 1131.42 364.325 1131.57 361.714C1131.78 357.879 1135.25 355.194 1137.33 351.971C1139.45 348.675 1140.35 344.557 1139.76 340.676C1136.94 322.231 1147.3 322.797 1148.62 322.77C1149.83 322.743 1153.86 320.268 1155.46 319.802C1157.26 319.282 1159.11 318.962 1160.97 318.962Z" fill="#D38D00"/>
<path d="M1112.3 396.348C1107.91 392.85 1090.08 381.035 1089.9 379.382C1089.58 376.278 1088.49 373.821 1081.84 371.703C1081.84 371.703 1081.31 372.689 1082.24 373.776C1083.23 374.954 1084.03 375.364 1084.03 375.364C1084.03 375.364 1082.26 376.022 1079.66 373.94C1077.05 371.858 1075.96 370.059 1074.85 370.488C1074.85 370.488 1073.55 369.292 1072.93 369.475C1072.93 369.475 1072.48 369.603 1072.56 370.096C1071.53 369.922 1071.71 372.89 1073.51 375.328C1076.1 378.825 1080.67 381.491 1083.35 382.505C1085.35 383.263 1098.51 402.749 1107.33 404.858C1109.86 405.442 1114.34 397.973 1112.3 396.348Z" fill="#FCDDC6"/>
<path d="M1126.1 379.063C1126.1 379.063 1106.38 392.833 1104.48 396.257C1102.57 399.681 1103.99 408.821 1112.77 402.95C1121.56 397.078 1135.42 386.422 1135.42 386.422L1126.1 379.063Z" fill="#FCDDC6"/>
<path d="M1136.23 366.526C1136.23 366.526 1130.81 367.896 1127.2 372.196C1124.17 375.803 1119.29 381.611 1119.29 381.611L1134.25 393.243C1134.26 393.234 1137.9 372.087 1136.23 366.526Z" fill="#47248F"/>
<path d="M1172.93 423.522H1134.7C1134.7 423.522 1134.86 416.957 1132.73 406.757C1130.6 396.567 1131.67 391.235 1133.79 385.911C1135.93 380.588 1132.12 368.279 1136.23 366.526C1137.9 365.814 1140.8 364.663 1143.64 363.558C1144.36 363.284 1145.07 363.001 1145.76 362.737C1149.06 361.458 1151.84 360.399 1151.84 360.399H1158.72C1158.72 360.399 1163.46 361.97 1168.33 363.915C1168.97 364.17 1169.62 364.435 1170.26 364.7C1170.26 364.709 1170.26 364.709 1170.26 364.709C1172.71 365.741 1175.05 366.827 1176.65 367.823C1181.82 371.018 1172.93 423.522 1172.93 423.522Z" fill="#6842C2"/>
<path d="M1149.52 343.461L1150.25 357.632L1150.46 361.677C1150.55 363.394 1151.3 364.928 1152.47 366.033C1153.62 367.138 1155.19 367.804 1156.91 367.804C1160.54 367.804 1163.45 364.809 1163.36 361.184L1163.18 353.971L1162.87 341.982L1149.52 343.461Z" fill="#FFDFC8"/>
<path d="M1149.52 343.461L1150.25 356.811C1156.52 357.066 1161.09 354.51 1163.19 351.113L1162.88 341.982L1149.52 343.461Z" fill="#DA9F74"/>
<path d="M1144.54 332.485C1144.54 332.485 1144.08 337.106 1144.73 342.21C1145.47 348.118 1146.13 354.884 1153.91 355.523C1163.17 356.281 1166.26 345.616 1166.26 345.616C1166.26 345.616 1170.57 344.611 1171.1 341.671C1171.62 338.722 1168.42 337.836 1167.29 338.768C1167.29 338.768 1166.02 326.331 1154.55 326.331C1144.41 326.331 1144.54 332.485 1144.54 332.485Z" fill="#FFDFC8"/>
<path d="M1170.26 364.7C1170.26 364.709 1170.26 364.709 1170.26 364.7C1162.42 374.269 1153.17 373.822 1153.17 373.822C1145.87 372.224 1143.64 363.558 1143.64 363.558C1144.36 363.284 1145.07 363.001 1145.76 362.737C1149.06 361.458 1151.84 360.399 1151.84 360.399H1158.72C1158.72 360.399 1163.46 361.97 1168.33 363.915C1168.97 364.17 1169.62 364.435 1170.26 364.7Z" fill="#04D361"/>
<path d="M1168.33 363.915C1160.34 372.616 1153.41 371.703 1153.41 371.703C1145.96 368.845 1145.76 362.737 1145.76 362.737C1149.06 361.458 1151.84 360.399 1151.84 360.399H1158.72C1158.72 360.399 1163.46 361.97 1168.33 363.915Z" fill="#FCDDC6"/>
<path d="M1148.54 323.646C1148.54 323.646 1149.6 332.641 1143.83 335.608C1143.83 335.608 1140.94 324.715 1148.54 323.646Z" fill="#D38D00"/>
<path d="M1146.79 324.505C1146.79 324.505 1148.84 332.339 1153.93 332.796C1159.01 333.252 1158.11 337.38 1162.62 337.854C1165.3 338.138 1166.49 340.932 1166.49 340.932C1166.49 340.932 1166.88 338.156 1169.31 337.17C1171.75 336.183 1163.57 315.447 1146.79 324.505Z" fill="#D38D00"/>
<path d="M1155.42 343.36C1155.42 343.853 1155.81 344.246 1156.31 344.246C1156.8 344.246 1157.19 343.853 1157.19 343.36C1157.19 342.867 1156.8 342.475 1156.31 342.475C1155.82 342.475 1155.42 342.877 1155.42 343.36Z" fill="#60423D"/>
<path d="M1147.42 343.36C1147.42 343.853 1147.81 344.245 1148.3 344.245C1148.79 344.245 1149.18 343.853 1149.18 343.36C1149.18 342.867 1148.78 342.474 1148.3 342.474C1147.81 342.474 1147.42 342.876 1147.42 343.36Z" fill="#60423D"/>
<path d="M1159.53 340.274C1159.53 340.274 1158.22 338.11 1155.42 338.886" stroke="#561E15" stroke-miterlimit="10" stroke-linecap="round" stroke-linejoin="round"/>
<path d="M1150.61 338.859C1150.61 338.859 1148.58 337.015 1146.6 339.032" stroke="#561E15" stroke-miterlimit="10" stroke-linecap="round" stroke-linejoin="round"/>
<path d="M1152.38 341.059C1152.38 341.059 1151.42 343.506 1150.61 345.031C1149.79 346.556 1152.2 347.232 1152.2 347.232" stroke="#DA9F74" stroke-width="0.75" stroke-miterlimit="10" stroke-linecap="round" stroke-linejoin="round"/>
<path d="M1157.68 348.967C1157.68 348.967 1156.12 351.24 1153.41 350.592" stroke="#DA9F74" stroke-width="0.75" stroke-miterlimit="10" stroke-linecap="round" stroke-linejoin="round"/>
<path d="M1167.27 342.739C1167.27 342.739 1167.29 339.982 1169.35 340.74" stroke="#DA9F74" stroke-width="0.75" stroke-miterlimit="10" stroke-linecap="round" stroke-linejoin="round"/>
<path d="M1135.49 414.409H1100.47C1099.78 414.409 1099.21 413.843 1099.21 413.149C1099.21 412.455 1099.78 411.889 1100.47 411.889H1135.49C1136.18 411.889 1136.75 412.455 1136.75 413.149C1136.74 413.852 1136.18 414.409 1135.49 414.409Z" fill="#04D361"/>
<path d="M1096.54 384.622L1096.54 384.622L1096.53 384.62C1096.32 383.777 1096.97 382.951 1097.84 382.951H1129.38C1130 382.951 1130.53 383.371 1130.68 383.966L1130.68 383.968L1137.47 411.398H1103.17L1096.54 384.622Z" fill="#04D361" stroke="#04D361"/>
<path d="M1135.69 411.898H1100.35L1093.62 384.742C1093.33 383.583 1094.22 382.451 1095.41 382.451H1126.95C1127.8 382.451 1128.54 383.026 1128.74 383.848L1135.69 411.898Z" fill="white"/>
<path d="M1162.59 414.409H1136.09C1135.44 414.409 1134.91 413.88 1134.91 413.231V413.076C1134.91 412.428 1135.44 411.898 1136.09 411.898H1162.59C1163.24 411.898 1163.76 412.428 1163.76 413.076V413.231C1163.77 413.889 1163.24 414.409 1162.59 414.409Z" fill="#04D361"/>
<path d="M1115.48 395.632L1115.48 395.633C1116.07 397.168 1115.52 398.577 1114.57 398.95C1113.63 399.312 1112.27 398.639 1111.68 397.1C1111.09 395.561 1111.65 394.147 1112.59 393.783C1113.53 393.419 1114.89 394.086 1115.48 395.632Z" fill="#04D361" stroke="#04D361"/>
<path d="M1174.86 411.898L1172.56 382.076L1176.98 394.631L1174.86 411.898Z" fill="#47248F"/>
<path d="M1175.16 385.108C1175.16 385.108 1180.62 414.455 1181.97 419.258C1182.84 422.363 1189.21 424.481 1191.2 420.372C1191.64 419.468 1191.54 417.961 1191.49 416.427C1191.18 406.94 1184.56 382.798 1184.56 382.798L1175.16 385.108Z" fill="#FCDDC6"/>
<path d="M1176.66 367.823C1176.66 367.823 1179.91 369.494 1182.65 374.214C1185.38 378.935 1189.16 387.263 1188.92 389.281C1187.5 393.161 1176.27 397.179 1176.27 397.179C1176.27 397.179 1168.76 372.479 1176.66 367.823Z" fill="#6842C2"/>
<path d="M1182.96 413.587C1182.96 413.587 1165.64 413.204 1162.36 411.25C1157.91 408.593 1156.88 409.743 1154.3 409.104C1150.16 408.072 1150.62 408.912 1150.62 408.912C1150.62 408.912 1150.81 411.314 1154.01 411.615C1155.62 411.77 1158.04 412.455 1157.53 412.848C1157.53 412.848 1144.69 414.19 1142.11 414.418C1139.53 414.647 1140.79 416.637 1142.76 417.094C1142.76 417.094 1143.93 418.582 1145.84 418.126C1145.84 418.126 1145.42 418.966 1150.36 418.966C1155.3 418.966 1160.26 416.336 1162.77 417.477C1165.28 418.619 1178.82 423.869 1187.41 422.655C1191.51 422.07 1191.54 420.098 1191.54 418.016C1191.54 414.409 1188.88 413.953 1182.96 413.587Z" fill="#FCDDC6"/>
<path d="M823.705 552.882L817.988 576.54H807.912L810.338 552.882H823.705Z" fill="#BC8567"/>
<path d="M806.818 571.591C806.818 571.591 802.441 578.668 805.724 579.928C809.007 581.188 830.618 581.298 835.952 580.503C841.286 579.7 824.052 572.386 820.113 571.235C816.174 570.085 814.897 576.084 806.818 571.591Z" fill="#6842C2"/>
<path d="M791.973 552.882L788.517 576.54H778.441L778.605 552.882H791.973Z" fill="#BC8567"/>
<path d="M777.347 571.591C777.347 571.591 772.97 578.668 776.253 579.928C779.536 581.188 801.147 581.298 806.481 580.503C811.815 579.7 794.581 572.386 790.642 571.235C786.703 570.085 785.426 576.084 777.347 571.591Z" fill="#6842C2"/>
<path d="M775.04 438.461L775.788 564.707H791.782L803.08 471.953L815.955 509.591L806.317 564.716H823.715C823.715 564.716 839.007 517.079 838.387 507.729C837.767 498.369 820.113 434.616 820.113 434.616L775.04 438.461Z" fill="#D8D8E3"/>
<path d="M805.944 478.815L803.579 471.894L804.681 460.693L805.944 478.815Z" fill="#C9C9D4" stroke="#C9C9D4"/>
<path d="M784.068 436.936L783.146 564.716" stroke="#C9C9D4" stroke-miterlimit="10"/>
<path d="M833.043 380.643C833.043 380.643 843.375 400.21 843.603 406.219C843.83 412.227 837.22 410.885 833.8 405.47C830.381 400.046 824.909 384.669 824.909 384.669L833.043 380.643Z" fill="#BC8567"/>
<path d="M834.976 382.277C834.976 382.277 832.013 387.555 824.909 390.778C823.441 391.445 822.201 389.682 821.28 387.591C820.213 385.153 819.593 382.277 819.593 382.277C819.593 382.277 811.45 357.048 818.627 357.952C818.627 357.952 824.736 358.381 829.223 367.238C830.399 369.548 832.232 374.205 833.764 378.625C834.201 379.885 834.612 381.117 834.976 382.277Z" fill="#47248F"/>
<path d="M834.976 382.277C834.976 382.277 832.013 387.555 824.909 390.778C823.441 391.445 822.201 389.682 821.28 387.591C824.061 386.34 829.323 383.528 833.764 378.625C834.201 379.885 834.612 381.117 834.976 382.277Z" fill="#04D361"/>
<path d="M820.478 435.995C815.964 441.127 786.247 440.369 775.031 438.46C773.061 438.123 771.119 437.365 774.228 430.498C775.396 427.932 774.894 421.331 774.693 412.254C774.301 394.312 768.985 364.544 775.541 361.129C779.472 359.075 787.815 356.372 793.879 354.528C794.244 354.427 794.599 354.318 794.946 354.208C798.484 353.149 801.01 352.446 801.01 352.446C801.01 352.446 803.937 352.875 809.891 354.637C810.21 354.729 810.557 354.838 810.903 354.939C812.453 355.413 814.177 355.961 816.101 356.619C819.83 357.888 822.566 358.664 823.232 359.906C825.01 363.166 824.326 368.946 824.435 377.273C824.581 387.728 824.472 431.466 820.478 435.995Z" fill="#6842C2"/>
<path d="M773.298 391.938L779.709 376.287L775.04 416.546L773.298 391.938Z" fill="#47248F"/>
<path d="M810.903 354.948C810.766 357.158 809.773 359.102 808.277 360.527C806.745 361.988 804.675 362.874 802.423 362.874C797.763 362.874 793.988 359.139 793.897 354.519C794.262 354.418 794.617 354.309 794.964 354.199C798.502 353.14 801.028 352.437 801.028 352.437C801.028 352.437 803.955 352.866 809.909 354.628C810.219 354.747 810.557 354.847 810.903 354.948Z" fill="#04D361"/>
<path d="M814.789 320.5C814.789 320.5 811.413 317.269 806.304 316.5C798.83 315.376 788.991 317.81 787.031 329.235C785.481 335.818 793.496 346.639 796.523 346.008C796.523 346.008 823.774 328.735 814.789 320.5Z" fill="#43302D"/>
<path d="M809.882 336.329L809.153 350.501L808.943 354.546C808.861 356.263 808.104 357.797 806.937 358.901C805.779 360.006 804.21 360.673 802.496 360.673C798.867 360.673 795.949 357.678 796.04 354.053L796.222 346.839L796.532 334.85L809.882 336.329Z" fill="#BC8567"/>
<path d="M809.882 339.151L809.153 352.501C802.888 352.756 798.311 350.2 796.213 346.803L796.523 337.672L809.882 339.151Z" fill="#765441"/>
<path d="M814.852 328.175C814.852 328.175 815.317 332.796 814.669 337.9C813.922 343.808 814.186 350.747 805.487 351.213C796.204 351.706 793.131 341.306 793.131 341.306C793.131 341.306 788.198 340.384 787.861 337.051C787.523 333.718 790.97 333.526 792.092 334.458C792.092 334.458 793.368 322.021 804.839 322.021C814.988 322.03 814.852 328.175 814.852 328.175Z" fill="#BC8567"/>
<path d="M804.237 337.106C804.237 337.617 803.827 338.028 803.317 338.028C802.806 338.028 802.396 337.617 802.396 337.106C802.396 336.594 802.806 336.183 803.317 336.183C803.818 336.183 804.237 336.594 804.237 337.106Z" fill="#60423D"/>
<path d="M813.11 336.631C813.11 337.142 812.699 337.553 812.189 337.553C811.678 337.553 811.268 337.142 811.268 336.631C811.268 336.12 811.678 335.709 812.189 335.709C812.699 335.709 813.11 336.12 813.11 336.631Z" fill="#60423D"/>
<path d="M799.688 334.467C799.688 334.467 801.046 332.221 803.954 333.033" stroke="#43302D" stroke-miterlimit="10" stroke-linecap="round" stroke-linejoin="round"/>
<path d="M808.952 332.997C808.952 332.997 811.049 331.079 813.109 333.179" stroke="#43302D" stroke-miterlimit="10" stroke-linecap="round" stroke-linejoin="round"/>
<path d="M807.119 335.28C807.119 335.28 808.113 337.818 808.961 339.407C809.809 340.986 807.302 341.69 807.302 341.69" stroke="#765441" stroke-width="0.75" stroke-miterlimit="10" stroke-linecap="round" stroke-linejoin="round"/>
<path d="M803.782 344.529C803.782 344.529 805.833 346.52 808.468 345.305" stroke="#765441" stroke-width="0.75" stroke-miterlimit="10" stroke-linecap="round" stroke-linejoin="round"/>
<path d="M791.945 338.127C791.945 338.127 791.918 335.27 789.785 336.046" stroke="#765441" stroke-width="0.75" stroke-miterlimit="10" stroke-linecap="round" stroke-linejoin="round"/>
<path d="M794.763 324.833C794.763 324.833 799.979 330.157 797.125 332.193C793.952 334.458 793.45 337.672 793.45 337.672C793.45 337.672 793.514 336.54 792.101 334.467C790.687 332.394 787.605 325.034 794.763 324.833Z" fill="#43302D"/>
<path d="M766.204 381.693C766.204 381.693 755.873 401.26 755.645 407.269C755.417 413.277 762.028 411.935 765.447 406.52C768.867 401.096 774.338 385.719 774.338 385.719L766.204 381.693Z" fill="#BC8567"/>
<path d="M839.873 399.598C839.873 399.598 824.472 388.185 823.596 387.536C822.11 386.422 819.94 384.806 819.156 384.258C817.915 383.391 810.666 382.131 809.654 382.295C808.651 382.459 805.87 382.934 805.058 383.235C804.247 383.537 805.268 384.578 806.07 385.071C806.873 385.564 810.429 387.408 813.447 387.965C815.125 388.276 816.566 389.125 817.742 389.974C818.681 390.65 834.931 407.241 835.542 407.643L839.873 399.598Z" fill="#BC8567"/>
<path d="M820.806 385.592C820.806 385.592 815.007 380.159 814.14 380.241C813.283 380.323 813.894 381.547 816.174 383.4C816.949 384.03 817.779 385.025 818.472 385.354C819.83 385.993 820.806 385.592 820.806 385.592Z" fill="#BC8567"/>
<path d="M816.133 405.165L816.135 405.165C816.648 405.106 817.072 404.736 817.204 404.23L817.204 404.23L822.255 384.781C822.255 384.781 822.255 384.781 822.255 384.781C822.255 384.781 822.255 384.781 822.255 384.781C822.477 383.926 821.765 383.107 820.883 383.212C820.883 383.212 820.883 383.212 820.883 383.212L799.738 385.741L799.735 385.741L799.735 385.741C799.223 385.8 798.798 386.17 798.667 386.676L798.667 386.676L793.615 406.125C793.393 406.98 794.105 407.799 794.987 407.695L816.133 405.165ZM816.133 405.165L794.987 407.694L816.133 405.165Z" fill="#04D361" stroke="#04D361"/>
<path d="M817.132 406.31L795.986 408.839C794.755 408.985 793.761 407.844 794.071 406.648L799.123 387.199C799.305 386.495 799.898 385.975 800.618 385.893L821.764 383.363C822.995 383.217 823.989 384.359 823.679 385.555L818.627 405.004C818.445 405.698 817.852 406.219 817.132 406.31Z" fill="white"/>
<path d="M800.863 391.108L800.863 391.108L800.861 391.113C800.861 391.117 800.857 391.126 800.845 391.136C800.833 391.147 800.818 391.155 800.8 391.159L799.794 391.276L799.794 391.276C799.773 391.278 799.754 391.272 799.738 391.254C799.723 391.236 799.719 391.217 799.724 391.196L799.724 391.195L800.718 387.379L800.718 387.379L800.721 387.37C800.725 387.351 800.742 387.333 800.768 387.33L801.787 387.211L801.787 387.211C801.808 387.209 801.827 387.216 801.842 387.234C801.858 387.251 801.862 387.271 801.857 387.291L801.856 387.292L800.863 391.108ZM801.347 391.234L802.34 387.418L800.873 391.654C801.1 391.617 801.292 391.453 801.347 391.234Z" fill="#04D361" stroke="#04D361"/>
<path d="M759.593 401.48C766.049 401.735 786.228 401.315 788.9 400.402C790.049 400.01 792.876 399.416 793.596 398.293C794.326 397.152 794.946 395.417 795.703 395.289C796.286 395.188 796.149 397.069 795.976 397.754C795.648 398.987 795.429 399.626 794.991 400.192C794.845 400.384 799.815 401.096 802.934 400.302C805.076 399.754 804.675 401.471 803.235 402.192C803.235 402.192 803.809 403.689 802.295 404.182C802.295 404.182 802.56 405.844 801.101 405.972C800.946 406.383 800.49 407.123 799.231 407.479C797.408 407.99 794.244 407.981 791.836 408.081C790.414 408.136 762.921 412.437 758.061 411.213C756.037 410.702 757.496 401.397 759.593 401.48Z" fill="#BC8567"/>
<path d="M778.122 384.322C778.122 384.322 777.648 386.121 776.946 387.975C776.161 390.02 775.095 392.12 774.046 391.929C774.046 391.929 759.784 387.418 760.259 385.957C760.614 384.87 761.225 383.455 761.982 381.884C764.344 376.972 768.091 370.562 769.605 368.078C774.766 359.595 776.882 360.673 776.882 360.673C784.113 360.326 778.122 384.322 778.122 384.322Z" fill="#6842C2"/>
<path d="M776.946 387.975C776.161 390.02 775.095 392.12 774.046 391.929C774.046 391.929 759.784 387.418 760.259 385.957C760.614 384.87 761.225 383.455 761.982 381.884C764.608 383.126 771.693 386.386 776.946 387.975Z" fill="#04D361"/>
<path d="M781.469 427.96C781.469 427.96 805.177 424.152 817.943 416.546C817.943 416.546 803.663 430.854 781.469 427.96Z" fill="#47248F"/>
<path d="M1077.15 518.439H1015.5C1012.46 518.439 1010.01 515.974 1010.01 512.943V483.111C1010.01 480.071 1012.47 477.615 1015.5 477.615H1077.15C1080.18 477.615 1082.64 480.08 1082.64 483.111V512.933C1082.65 515.974 1080.18 518.439 1077.15 518.439Z" fill="#6842C2"/>
<path d="M1016.55 507.893C1022.29 507.893 1022.29 501.045 1028.03 501.045C1033.78 501.045 1033.78 491.914 1039.52 491.914C1045.27 491.914 1045.27 495.411 1051.01 495.411C1056.76 495.411 1056.76 486.965 1062.5 486.965C1068.25 486.965 1068.25 500.214 1073.99 500.214" stroke="white" stroke-width="2" stroke-miterlimit="10" stroke-linecap="round" stroke-linejoin="round"/>
<path d="M1018.22 507.893C1018.22 506.971 1017.48 506.222 1016.55 506.222C1015.63 506.222 1014.89 506.971 1014.89 507.893C1014.89 508.815 1015.63 509.564 1016.55 509.564C1017.48 509.564 1018.22 508.815 1018.22 507.893Z" fill="white"/>
<path d="M1075.67 500.223C1075.67 499.301 1074.92 498.552 1074 498.552C1073.08 498.552 1072.33 499.301 1072.33 500.223C1072.33 501.145 1073.08 501.893 1074 501.893C1074.92 501.893 1075.67 501.145 1075.67 500.223Z" fill="white"/>
<path d="M720.62 303.047H782.198C786.32 303.047 789.666 299.696 789.666 295.568V276.749C789.666 272.622 786.32 269.271 782.198 269.271H720.62C716.499 269.271 713.152 272.622 713.152 276.749V295.568C713.152 299.705 716.499 303.047 720.62 303.047Z" fill="#6842C2"/>
<path d="M780.493 301.111V309.311L771.712 300.527L780.493 301.111Z" fill="#6842C2"/>
<path d="M720.228 277.562H737.298" stroke="white" stroke-width="2.2165" stroke-miterlimit="10" stroke-linecap="round" stroke-linejoin="round"/>
<path d="M743.38 277.562H782.59" stroke="white" stroke-width="2.2165" stroke-miterlimit="10" stroke-linecap="round" stroke-linejoin="round"/>
<path d="M720.228 286.163H752.052" stroke="white" stroke-width="2.2165" stroke-miterlimit="10" stroke-linecap="round" stroke-linejoin="round"/>
<path d="M756.921 286.163H766.341" stroke="white" stroke-width="2.2165" stroke-miterlimit="10" stroke-linecap="round" stroke-linejoin="round"/>
<path d="M771.393 286.163H782.59" stroke="white" stroke-width="2.2165" stroke-miterlimit="10" stroke-linecap="round" stroke-linejoin="round"/>
<path d="M720.228 294.756H727.432" stroke="white" stroke-width="2.2165" stroke-miterlimit="10" stroke-linecap="round" stroke-linejoin="round"/>
<path d="M731.845 294.756H757.833" stroke="white" stroke-width="2.2165" stroke-miterlimit="10" stroke-linecap="round" stroke-linejoin="round"/>
<path d="M1103.89 272.551H1088.09C1085.15 272.551 1082.77 270.168 1082.77 267.228V251.404C1082.77 248.464 1085.15 246.08 1088.09 246.08H1103.89C1106.83 246.08 1109.21 248.464 1109.21 251.404V267.228C1109.21 270.168 1106.83 272.551 1103.89 272.551Z" fill="#6842C2"/>
<path d="M1104.99 257.95L1104.59 256.215C1104.52 255.877 1104.17 255.667 1103.84 255.74L1102.82 255.978C1102.55 256.042 1102.29 255.914 1102.14 255.686C1101.74 255.056 1101.25 254.489 1100.68 254.015C1100.45 253.823 1100.38 253.512 1100.51 253.248L1101.02 252.198C1101.17 251.887 1101.04 251.504 1100.73 251.358L1099.12 250.581C1098.81 250.426 1098.43 250.563 1098.28 250.874L1097.74 252.015C1097.62 252.271 1097.34 252.398 1097.06 252.362C1096.72 252.316 1096.37 252.289 1096.02 252.289C1095.67 252.289 1095.32 252.316 1094.98 252.362C1094.7 252.398 1094.43 252.271 1094.31 252.015L1093.76 250.874C1093.61 250.563 1093.23 250.426 1092.92 250.581L1091.32 251.358C1091.01 251.513 1090.87 251.887 1091.03 252.198L1091.54 253.248C1091.66 253.512 1091.58 253.823 1091.36 254.015C1090.8 254.499 1090.3 255.056 1089.9 255.686C1089.76 255.914 1089.49 256.042 1089.23 255.978L1088.21 255.74C1087.87 255.667 1087.53 255.877 1087.45 256.215L1087.06 257.95C1086.99 258.288 1087.2 258.626 1087.53 258.708L1088.83 259C1088.82 259.183 1088.8 259.356 1088.8 259.539C1088.8 260.406 1088.96 261.246 1089.24 262.013C1089.33 262.269 1089.27 262.561 1089.05 262.735L1088.54 263.137C1088.27 263.356 1088.23 263.748 1088.44 264.022L1089.5 265.419C1089.72 265.693 1090.11 265.739 1090.39 265.52L1090.73 265.237C1090.97 265.054 1091.3 265.063 1091.53 265.246C1092.26 265.812 1093.09 266.25 1094 266.515C1094.27 266.597 1094.47 266.835 1094.47 267.127V267.492C1094.47 267.839 1094.75 268.122 1095.1 268.122H1096.88C1097.23 268.122 1097.51 267.839 1097.51 267.492V267.127C1097.51 266.835 1097.71 266.597 1097.98 266.515C1098.89 266.25 1099.72 265.821 1100.45 265.246C1100.69 265.063 1101.02 265.045 1101.25 265.237L1101.59 265.52C1101.87 265.739 1102.26 265.693 1102.48 265.419L1103.59 264.031C1103.81 263.757 1103.76 263.365 1103.49 263.146L1102.99 262.744C1102.77 262.57 1102.71 262.278 1102.8 262.023C1103.08 261.246 1103.23 260.416 1103.23 259.548C1103.23 259.365 1103.22 259.192 1103.21 259.009L1104.5 258.717C1104.85 258.626 1105.06 258.288 1104.99 257.95ZM1095.99 264.05C1093.51 264.05 1091.49 262.032 1091.49 259.539C1091.49 257.046 1093.51 255.028 1095.99 255.028C1098.48 255.028 1100.5 257.046 1100.5 259.539C1100.5 262.032 1098.48 264.05 1095.99 264.05Z" fill="white"/>
<path d="M1244.14 377.35C1245.76 367.369 1238.99 357.966 1229.03 356.348C1219.06 354.73 1209.67 361.509 1208.05 371.489C1206.43 381.469 1213.2 390.872 1223.16 392.49C1233.13 394.109 1242.52 387.33 1244.14 377.35Z" fill="#6842C2"/>
<path d="M1236.1 376.823C1237.41 371.292 1233.99 365.751 1228.46 364.446C1222.94 363.141 1217.4 366.567 1216.1 372.097C1214.79 377.628 1218.21 383.17 1223.74 384.475C1229.26 385.78 1234.8 382.354 1236.1 376.823Z" fill="#6842C2" stroke="white" stroke-width="2" stroke-miterlimit="10" stroke-linecap="round" stroke-linejoin="round"/>
<path d="M1226.08 367.695V374.424L1222.53 377.976" fill="#6842C2"/>
<path d="M1226.08 367.695V374.424L1222.53 377.976" stroke="white" stroke-width="2" stroke-miterlimit="10" stroke-linecap="round" stroke-linejoin="round"/>
<path d="M1226.08 364.134V365.12" stroke="white" stroke-width="2" stroke-miterlimit="10" stroke-linecap="round" stroke-linejoin="round"/>
<path d="M1226.08 383.738V384.715" stroke="white" stroke-width="2" stroke-miterlimit="10" stroke-linecap="round" stroke-linejoin="round"/>
<path d="M1236.36 374.424H1235.37" stroke="white" stroke-width="2" stroke-miterlimit="10" stroke-linecap="round" stroke-linejoin="round"/>
<path d="M1216.79 374.424H1215.8" stroke="white" stroke-width="2" stroke-miterlimit="10" stroke-linecap="round" stroke-linejoin="round"/>
<path d="M232.759 302.372H180.803C166.978 302.372 160 309.083 160 322.377V393.522C160 395.265 160.936 396.338 162.952 396.338H178.658C180.537 396.338 181.747 395.265 181.747 393.522V390.821C181.747 384.231 184.524 380.64 191.426 379.947H232.759C247.924 379.947 254.772 373.373 254.772 359.007V323.312C254.772 308.946 247.924 302.372 232.759 302.372ZM233.048 352.965C233.048 360.757 231.283 362.363 222.015 362.363H200.001C190.741 362.363 184.829 365.452 181.739 371.494V327.612C181.739 321.57 183.216 319.957 190.596 319.957H222.015C231.283 319.957 233.048 321.57 233.048 329.354V352.965Z" fill="white"/>
<path d="M304.574 341.704C292.628 341.704 287.522 347.745 287.522 357.949V393.788C287.522 395.402 286.715 396.338 284.836 396.338H270.607C268.727 396.338 267.791 395.402 267.791 393.788V328.281C267.791 326.668 268.727 325.725 270.607 325.725H282.553C284.303 325.725 285.239 326.668 285.239 328.281V338.85C287.522 330.13 294.104 325.694 305.784 325.694H310.616C312.358 325.694 313.294 326.638 313.294 328.251V339.155C313.294 340.897 312.358 341.704 310.616 341.704H304.574Z" fill="white"/>
<path d="M397.193 377.14C397.193 390.433 391.288 396.338 377.196 396.338H342.293C328.33 396.338 322.288 390.433 322.288 377.14V344.938C322.288 331.652 328.33 325.74 342.293 325.74H377.196C391.288 325.74 397.193 331.652 397.193 344.938V377.14ZM377.462 350.028C377.462 343.043 376.123 341.704 367.799 341.704H351.819C343.366 341.704 342.019 343.043 342.019 350.028V372.041C342.019 379.019 343.366 380.366 351.819 380.366H367.799C376.123 380.366 377.462 379.019 377.462 372.041V350.028Z" fill="white"/>
<path d="M417.06 341.704H410.341C408.591 341.704 407.655 340.897 407.655 339.155V328.281C407.655 326.668 408.591 325.725 410.341 325.725H417.053V317.004C417.06 303.711 424.038 297 437.864 297H454.376C456.255 297 457.062 297.944 457.062 299.549V310.423C457.062 312.173 456.255 312.972 454.376 312.972H445.656C438.267 312.972 436.791 314.585 436.791 320.626V325.725H454.376C456.255 325.725 457.062 326.668 457.062 328.281V339.155C457.062 340.897 456.255 341.704 454.376 341.704H436.791V393.789C436.791 395.402 435.855 396.338 433.975 396.338H419.746C417.867 396.338 417.06 395.402 417.06 393.789V341.704Z" fill="white"/>
<path d="M471.831 341.704H465.127C463.385 341.704 462.449 340.897 462.449 339.155V328.281C462.449 326.668 463.385 325.725 465.127 325.725H471.846V317.004C471.831 303.711 478.824 297 492.635 297H509.146C511.026 297 511.832 297.944 511.832 299.549V310.423C511.832 312.173 511.026 312.972 509.146 312.972H500.419C493.038 312.972 491.562 314.585 491.562 320.626V325.725H509.146C511.026 325.725 511.832 326.668 511.832 328.281V339.155C511.832 340.897 511.026 341.704 509.146 341.704H491.562V393.789C491.562 395.402 490.618 396.338 488.739 396.338H474.509C472.63 396.338 471.831 395.402 471.831 393.789V341.704Z" fill="white"/>
<path d="M571.831 423.723H542.566C529.417 423.723 523.779 418.625 523.779 406.001V404.662C523.74 404.302 523.782 403.937 523.904 403.596C524.025 403.254 524.221 402.944 524.479 402.689C524.736 402.434 525.047 402.24 525.39 402.122C525.733 402.004 526.097 401.964 526.457 402.006H540.154C542.033 402.006 542.969 402.95 542.969 404.692V405.362C542.969 408.048 544.453 409.121 547.405 409.121H564.32C572.371 409.121 574.387 407.112 574.387 400.264V379.088C571.298 385.129 565.393 388.219 556.125 388.219H542.429C528.466 388.219 522.287 382.314 522.287 369.021V328.281C522.269 327.929 522.327 327.578 522.458 327.251C522.588 326.923 522.788 326.628 523.043 326.385C523.298 326.143 523.603 325.958 523.936 325.844C524.269 325.73 524.623 325.689 524.973 325.725H539.34C541.082 325.725 542.026 326.668 542.026 328.281V363.961C542.026 370.938 543.502 372.285 551.826 372.285H562.03C570.887 372.285 574.38 368.655 574.38 361.275V328.281C574.38 326.668 575.316 325.725 577.066 325.725H591.44C591.783 325.691 592.13 325.735 592.455 325.852C592.78 325.968 593.075 326.156 593.318 326.4C593.562 326.645 593.749 326.94 593.865 327.266C593.98 327.591 594.023 327.938 593.989 328.281V402.379C593.981 416.464 586.463 423.723 571.831 423.723Z" fill="white"/>
<path d="M179.08 461.16C179.08 451.872 165.544 455.904 165.544 449.424C165.544 446.724 167.668 445.32 170.368 445.392C173.428 445.428 175.012 447.336 175.228 449.028H178.828C178.432 445.212 175.3 442.584 170.512 442.584C165.544 442.584 162.196 445.392 162.196 449.532C162.196 458.856 175.768 454.536 175.768 461.304C175.768 463.68 173.896 465.48 170.728 465.48C167.236 465.48 165.76 463.392 165.544 461.304H162.052C162.124 465.444 165.688 468.252 170.728 468.252C176.164 468.252 179.08 464.724 179.08 461.16ZM201.397 448.272H198.121V459.108C198.121 463.356 195.853 465.444 192.469 465.444C189.157 465.444 186.961 463.392 186.961 459.396V448.272H183.721V459.828C183.721 465.48 187.285 468.288 191.821 468.288C194.449 468.288 196.861 467.136 198.121 465.084V468H201.397V448.272ZM205.704 458.064C205.704 464.184 209.772 468.324 215.028 468.324C218.664 468.324 221.22 466.452 222.408 464.328V468H225.72V448.272H222.408V451.872C221.256 449.82 218.736 447.948 215.064 447.948C209.772 447.948 205.704 451.908 205.704 458.064ZM222.408 458.1C222.408 462.744 219.312 465.444 215.712 465.444C212.112 465.444 209.052 462.708 209.052 458.064C209.052 453.42 212.112 450.792 215.712 450.792C219.312 450.792 222.408 453.528 222.408 458.1ZM244.13 451.908V448.272H240.854V477.36H244.13V464.364C245.354 466.38 247.91 468.324 251.51 468.324C256.802 468.324 260.87 464.184 260.87 458.064C260.87 451.908 256.802 447.948 251.51 447.948C247.91 447.948 245.318 449.82 244.13 451.908ZM257.522 458.064C257.522 462.708 254.462 465.444 250.826 465.444C247.262 465.444 244.13 462.744 244.13 458.1C244.13 453.528 247.262 450.792 250.826 450.792C254.462 450.792 257.522 453.42 257.522 458.064ZM265.182 468H268.458V441.36H265.182V468ZM272.818 458.064C272.818 464.184 276.886 468.324 282.142 468.324C285.778 468.324 288.334 466.452 289.522 464.328V468H292.834V448.272H289.522V451.872C288.37 449.82 285.85 447.948 282.178 447.948C276.886 447.948 272.818 451.908 272.818 458.064ZM289.522 458.1C289.522 462.744 286.426 465.444 282.826 465.444C279.226 465.444 276.166 462.708 276.166 458.064C276.166 453.42 279.226 450.792 282.826 450.792C286.426 450.792 289.522 453.528 289.522 458.1ZM298.982 468H302.258V450.972H306.398V448.272H302.258V446.868C302.258 444.312 303.23 443.232 306.182 443.232V440.496C301.142 440.496 298.982 442.476 298.982 446.868V448.272H296.426V450.972H298.982V468ZM328.937 458.1C328.937 451.872 324.581 447.948 318.965 447.948C313.385 447.948 308.993 451.872 308.993 458.1C308.993 464.364 313.241 468.324 318.821 468.324C324.437 468.324 328.937 464.364 328.937 458.1ZM312.341 458.1C312.341 453.132 315.473 450.792 318.929 450.792C322.313 450.792 325.589 453.132 325.589 458.1C325.589 463.104 322.241 465.444 318.821 465.444C315.401 465.444 312.341 463.104 312.341 458.1ZM336.521 457.272C336.521 452.7 338.897 451.296 342.029 451.296H342.893V447.912C339.761 447.912 337.637 449.28 336.521 451.476V448.272H333.245V468H336.521V457.272ZM375.15 468H378.39V456.372C378.39 450.72 374.898 447.912 370.398 447.912C367.374 447.912 364.566 449.46 363.414 452.304C362.118 449.352 359.418 447.912 356.178 447.912C353.586 447.912 351.246 449.028 349.95 451.116V448.272H346.674V468H349.95V457.128C349.95 452.88 352.218 450.756 355.53 450.756C358.77 450.756 360.93 452.808 360.93 456.84V468H364.17V457.128C364.17 452.88 366.438 450.756 369.75 450.756C372.99 450.756 375.15 452.808 375.15 456.84V468ZM382.54 458.064C382.54 464.184 386.608 468.324 391.864 468.324C395.5 468.324 398.056 466.452 399.244 464.328V468H402.556V448.272H399.244V451.872C398.092 449.82 395.572 447.948 391.9 447.948C386.608 447.948 382.54 451.908 382.54 458.064ZM399.244 458.1C399.244 462.744 396.148 465.444 392.548 465.444C388.948 465.444 385.888 462.708 385.888 458.064C385.888 453.42 388.948 450.792 392.548 450.792C396.148 450.792 399.244 453.528 399.244 458.1ZM416.466 458.064C416.466 464.184 420.534 468.324 425.826 468.324C429.426 468.324 431.982 466.488 433.17 464.292V468H436.482V441.36H433.17V451.8C431.802 449.532 428.958 447.948 425.862 447.948C420.534 447.948 416.466 451.908 416.466 458.064ZM433.17 458.1C433.17 462.744 430.074 465.444 426.474 465.444C422.874 465.444 419.814 462.708 419.814 458.064C419.814 453.42 422.874 450.792 426.474 450.792C430.074 450.792 433.17 453.528 433.17 458.1ZM450.406 450.72C453.79 450.72 456.67 452.844 456.634 456.696H444.178C444.538 452.844 447.202 450.72 450.406 450.72ZM459.622 461.916H456.094C455.374 464.04 453.502 465.552 450.55 465.552C447.202 465.552 444.394 463.356 444.142 459.36H459.91C459.982 458.676 460.018 458.1 460.018 457.38C460.018 451.98 456.274 447.948 450.55 447.948C444.79 447.948 440.794 451.872 440.794 458.1C440.794 464.364 444.934 468.324 450.55 468.324C455.446 468.324 458.614 465.516 459.622 461.916ZM171.16 496.72C174.544 496.72 177.424 498.844 177.388 502.696H164.932C165.292 498.844 167.956 496.72 171.16 496.72ZM180.376 507.916H176.848C176.128 510.04 174.256 511.552 171.304 511.552C167.956 511.552 165.148 509.356 164.896 505.36H180.664C180.736 504.676 180.772 504.1 180.772 503.38C180.772 497.98 177.028 493.948 171.304 493.948C165.544 493.948 161.548 497.872 161.548 504.1C161.548 510.364 165.688 514.324 171.304 514.324C176.2 514.324 179.368 511.516 180.376 507.916ZM199.28 508.636C199.136 501.58 187.688 504.136 187.688 499.456C187.688 497.872 189.128 496.72 191.54 496.72C194.168 496.72 195.68 498.16 195.824 500.14H199.1C198.884 496.288 196.004 493.948 191.648 493.948C187.256 493.948 184.412 496.432 184.412 499.456C184.412 506.8 196.076 504.244 196.076 508.636C196.076 510.256 194.636 511.552 192.044 511.552C189.272 511.552 187.58 510.112 187.4 508.204H184.016C184.232 511.804 187.472 514.324 192.08 514.324C196.436 514.324 199.28 511.876 199.28 508.636ZM204.625 508.6C204.625 512.56 206.605 514 210.097 514H213.049V511.228H210.637C208.621 511.228 207.901 510.544 207.901 508.6V496.972H213.049V494.272H207.901V489.304H204.625V494.272H202.069V496.972H204.625V508.6ZM234.514 494.272H231.238V505.108C231.238 509.356 228.97 511.444 225.586 511.444C222.274 511.444 220.078 509.392 220.078 505.396V494.272H216.838V505.828C216.838 511.48 220.402 514.288 224.938 514.288C227.566 514.288 229.978 513.136 231.238 511.084V514H234.514V494.272ZM238.821 504.064C238.821 510.184 242.889 514.324 248.181 514.324C251.781 514.324 254.337 512.488 255.525 510.292V514H258.837V487.36H255.525V497.8C254.157 495.532 251.313 493.948 248.217 493.948C242.889 493.948 238.821 497.908 238.821 504.064ZM255.525 504.1C255.525 508.744 252.429 511.444 248.829 511.444C245.229 511.444 242.169 508.708 242.169 504.064C242.169 499.42 245.229 496.792 248.829 496.792C252.429 496.792 255.525 499.528 255.525 504.1ZM283.094 504.1C283.094 497.872 278.738 493.948 273.122 493.948C267.542 493.948 263.15 497.872 263.15 504.1C263.15 510.364 267.398 514.324 272.978 514.324C278.594 514.324 283.094 510.364 283.094 504.1ZM266.498 504.1C266.498 499.132 269.63 496.792 273.086 496.792C276.47 496.792 279.746 499.132 279.746 504.1C279.746 509.104 276.398 511.444 272.978 511.444C269.558 511.444 266.498 509.104 266.498 504.1ZM301.585 508.636C301.441 501.58 289.993 504.136 289.993 499.456C289.993 497.872 291.433 496.72 293.845 496.72C296.473 496.72 297.985 498.16 298.129 500.14H301.405C301.189 496.288 298.309 493.948 293.953 493.948C289.561 493.948 286.717 496.432 286.717 499.456C286.717 506.8 298.381 504.244 298.381 508.636C298.381 510.256 296.941 511.552 294.349 511.552C291.577 511.552 289.885 510.112 289.705 508.204H286.321C286.537 511.804 289.777 514.324 294.385 514.324C298.741 514.324 301.585 511.876 301.585 508.636ZM334.527 504.1C334.527 497.872 330.171 493.948 324.555 493.948C318.975 493.948 314.583 497.872 314.583 504.1C314.583 510.364 318.831 514.324 324.411 514.324C330.027 514.324 334.527 510.364 334.527 504.1ZM317.931 504.1C317.931 499.132 321.063 496.792 324.519 496.792C327.903 496.792 331.179 499.132 331.179 504.1C331.179 509.104 327.831 511.444 324.411 511.444C320.991 511.444 317.931 509.104 317.931 504.1ZM353.271 514H356.511V502.372C356.511 496.72 353.019 493.912 348.447 493.912C345.783 493.912 343.407 495.028 342.111 497.08V494.272H338.835V514H342.111V503.092C342.111 498.844 344.415 496.756 347.763 496.756C351.075 496.756 353.271 498.808 353.271 502.84V514ZM361.862 514H365.138V487.36H361.862V514ZM370.721 514H373.997V494.272H370.721V514ZM372.413 491.068C373.601 491.068 374.573 490.096 374.573 488.836C374.573 487.576 373.601 486.604 372.413 486.604C371.153 486.604 370.181 487.576 370.181 488.836C370.181 490.096 371.153 491.068 372.413 491.068ZM394.017 514H397.257V502.372C397.257 496.72 393.765 493.912 389.193 493.912C386.529 493.912 384.153 495.028 382.857 497.08V494.272H379.581V514H382.857V503.092C382.857 498.844 385.161 496.756 388.509 496.756C391.821 496.756 394.017 498.808 394.017 502.84V514ZM410.996 496.72C414.38 496.72 417.26 498.844 417.224 502.696H404.768C405.128 498.844 407.792 496.72 410.996 496.72ZM420.212 507.916H416.684C415.964 510.04 414.092 511.552 411.14 511.552C407.792 511.552 404.984 509.356 404.732 505.36H420.5C420.572 504.676 420.608 504.1 420.608 503.38C420.608 497.98 416.864 493.948 411.14 493.948C405.38 493.948 401.384 497.872 401.384 504.1C401.384 510.364 405.524 514.324 411.14 514.324C416.036 514.324 419.204 511.516 420.212 507.916ZM428.136 511.984C428.136 510.724 427.164 509.752 425.976 509.752C424.716 509.752 423.744 510.724 423.744 511.984C423.744 513.244 424.716 514.216 425.976 514.216C427.164 514.216 428.136 513.244 428.136 511.984Z" fill="#D4C2FF"/>
</svg>
